<?xml version="1.0" standalone="no"?>
<!DOCTYPE svg PUBLIC "-//W3C//DTD SVG 20010904//EN"
 "http://www.w3.org/TR/2001/REC-SVG-20010904/DTD/svg10.dtd">
<svg version="1.0" xmlns="http://www.w3.org/2000/svg"
 width="1067.000000pt" height="1600.000000pt" viewBox="0 0 1067.000000 1600.000000"
 preserveAspectRatio="xMidYMid meet">

<g transform="translate(0.000000,1600.000000) scale(0.100000,-0.100000)"
fill="#000000" stroke="none">
<path d="M8366 15533 c-9 -647 -24 -2022 -28 -2528 l-3 -420 55 -12 c122 -27
217 -51 255 -66 22 -8 60 -17 84 -21 l45 -7 -29 23 c-16 13 -35 22 -42 20 -7
-1 -15 13 -20 35 -10 49 -8 699 6 1603 6 393 14 968 17 1278 l6 562 -80 0 -80
0 -4 -72 c-3 -40 -5 -188 -6 -328 -2 -296 -13 -923 -17 -960 -2 -14 -4 -90 -5
-170 -2 -109 -4 -135 -11 -105 -9 43 -12 1611 -3 1626 3 5 -26 9 -64 9 l-69 0
-7 -467z"/>
<path d="M6730 15743 c-40 -7 -151 -43 -199 -65 -25 -11 -61 -21 -80 -23 -45
-3 -106 6 -93 14 6 3 -45 6 -111 6 -118 -1 -194 -15 -251 -47 -11 -5 -44 -19
-75 -29 -30 -11 -64 -28 -76 -39 -11 -10 -22 -18 -25 -17 -7 3 -97 -71 -138
-113 -18 -19 -49 -62 -68 -96 -33 -60 -112 -151 -125 -147 -16 5 -60 -136 -61
-196 0 -16 -3 -20 -11 -12 -12 12 -15 117 -3 146 5 14 5 16 -2 7 -5 -8 -13
-14 -17 -14 -4 0 -12 6 -16 14 -6 8 -9 -6 -10 -37 0 -37 -3 -45 -9 -30 -17 40
-11 -40 10 -121 13 -50 17 -80 10 -82 -6 -2 -8 -7 -5 -11 2 -5 -8 -13 -23 -20
-25 -11 -26 -10 -8 4 11 8 15 15 9 15 -13 0 -35 -25 -28 -32 3 -3 -4 -13 -15
-23 -11 -10 -20 -22 -20 -26 0 -4 11 3 25 17 20 20 28 23 45 14 14 -8 26 -8
41 0 11 7 23 9 26 6 3 -3 -6 -11 -21 -17 -16 -7 -25 -18 -22 -26 8 -21 -12
-63 -27 -57 -10 3 -14 -5 -15 -31 -2 -39 5 -44 24 -18 17 25 28 10 13 -18 -9
-17 -9 -24 0 -27 6 -2 11 -10 11 -18 0 -9 -5 -12 -12 -8 -8 5 -9 2 -5 -10 4
-10 7 -25 7 -34 0 -14 2 -15 10 -2 11 18 9 23 43 -120 40 -169 54 -215 95
-302 22 -46 52 -120 68 -165 l28 -82 -22 -31 -23 -31 28 -79 c20 -58 33 -80
45 -80 12 0 22 -15 32 -47 13 -44 15 -45 15 -16 1 17 -11 89 -25 160 -26 130
-43 337 -25 298 5 -11 12 -37 16 -57 3 -21 10 -38 15 -38 6 0 10 -11 10 -25 0
-27 6 -30 30 -15 9 5 19 5 27 -1 7 -6 26 -8 43 -4 23 5 30 3 30 -9 0 -22 30
-27 102 -17 74 10 100 22 141 59 26 25 39 54 15 34 -18 -14 -88 -32 -88 -22 0
5 16 18 35 30 19 12 33 26 29 31 -3 5 -10 7 -15 3 -6 -3 -25 -8 -42 -10 -30
-4 -31 -4 -13 11 11 8 27 15 37 15 19 0 29 19 29 56 0 29 20 31 43 6 21 -23
21 -29 0 -35 -10 -3 1 -3 24 0 41 5 44 4 56 -26 13 -30 14 -31 30 -13 22 24
47 97 47 137 0 73 -97 218 -149 222 -13 1 -28 7 -32 14 -5 9 -11 8 -24 -4 -15
-15 -18 -15 -31 -2 -19 18 -33 19 -39 3 -3 -7 -22 -14 -42 -15 -20 -1 -39 -7
-43 -13 -4 -7 -26 -13 -48 -14 -23 -1 -44 -5 -48 -9 -4 -3 -14 -2 -23 2 -21
11 -61 -4 -61 -23 0 -8 -4 -17 -9 -20 -11 -7 -2 34 11 51 6 7 4 13 -4 16 -10
4 -10 6 0 6 6 1 12 6 12 12 0 6 -7 9 -15 5 -11 -4 -15 2 -15 27 0 18 -7 52
-16 76 -8 24 -12 51 -9 59 3 8 1 20 -4 26 -5 6 -7 31 -4 55 4 32 11 45 25 49
15 4 17 7 6 13 -10 7 -10 9 0 9 6 0 12 7 12 16 0 8 5 12 10 9 6 -3 10 1 10 9
0 8 6 21 13 28 7 7 20 25 30 41 10 15 23 27 31 27 7 0 19 11 26 25 7 14 19 25
26 25 7 0 14 4 16 10 6 18 64 23 81 6 20 -20 28 -20 20 0 -4 12 0 14 23 8 16
-4 36 -10 44 -14 18 -9 70 -1 70 10 0 5 24 10 53 13 28 3 90 14 137 25 62 14
115 19 196 17 114 -3 136 -6 192 -31 18 -8 36 -12 41 -9 5 3 12 1 16 -5 4 -6
10 -8 15 -5 16 10 85 -46 128 -103 41 -55 47 -76 42 -145 -1 -15 6 -39 15 -53
27 -42 12 -47 -49 -15 -32 17 -70 31 -85 30 -14 0 -20 -3 -13 -6 15 -6 -206
-85 -222 -80 -18 7 -117 -42 -142 -68 -18 -19 -22 -33 -18 -55 4 -16 2 -42 -4
-59 -8 -24 -7 -32 5 -42 11 -10 14 -24 9 -61 -5 -32 -3 -48 4 -48 7 0 9 -13 4
-35 -4 -23 -2 -35 5 -35 6 0 11 -6 11 -14 0 -15 23 -28 52 -31 10 -1 24 -8 33
-15 23 -19 20 16 -5 63 -25 45 -26 72 -4 63 9 -3 18 -6 20 -6 2 0 4 -13 4 -30
0 -36 29 -50 140 -69 59 -10 85 -10 120 -1 69 19 117 47 137 80 9 16 23 30 29
30 16 0 74 52 74 66 0 7 7 15 16 18 27 10 60 -4 78 -35 9 -16 25 -29 34 -29
16 -1 16 -1 0 -11 -21 -12 -23 -23 -5 -41 6 -7 13 -31 13 -53 1 -22 4 -83 7
-135 3 -52 3 -109 0 -127 -5 -32 -23 -40 -33 -16 -3 8 -10 9 -19 4 -12 -8 -12
-18 1 -70 13 -56 13 -63 -1 -71 -9 -6 -11 -10 -4 -10 17 0 4 -32 -20 -49 -11
-8 -17 -21 -14 -32 3 -11 1 -22 -4 -25 -6 -3 -7 -15 -4 -26 4 -11 1 -26 -8
-36 -9 -10 -18 -29 -20 -43 -3 -14 -16 -48 -30 -75 -62 -121 -85 -174 -83
-186 2 -7 6 -30 10 -50 6 -29 3 -48 -14 -85 -13 -26 -32 -57 -42 -68 -11 -11
-28 -35 -39 -53 -11 -18 -34 -40 -52 -48 -17 -8 -50 -25 -72 -39 -48 -30 -52
-32 -87 -39 -16 -4 -27 -12 -25 -18 1 -8 -9 -12 -28 -10 -16 1 -43 2 -59 3
-21 2 -34 -4 -44 -19 -11 -17 -24 -22 -56 -22 -40 1 -125 25 -156 45 -8 6 -24
15 -35 20 -20 11 -39 54 -51 120 -4 22 -9 32 -11 23 -6 -25 -32 -22 -44 5 -21
47 -38 69 -92 120 -36 35 -66 76 -86 119 -33 68 -37 83 -22 74 5 -3 23 -3 40
0 22 5 31 12 31 27 0 17 2 17 22 -8 18 -23 22 -25 30 -11 10 18 38 22 38 6 0
-5 6 -10 13 -10 13 0 41 -35 93 -114 18 -28 22 -41 14 -46 -10 -6 -10 -16 0
-44 12 -37 62 -82 80 -71 6 4 17 2 24 -4 19 -16 79 -2 71 17 -4 12 3 14 44 10
35 -3 52 -1 55 8 2 6 23 15 45 19 39 6 59 20 48 32 -11 10 -217 7 -228 -4 -10
-10 -32 -6 -98 19 -37 14 -6 30 42 22 48 -8 47 5 -3 36 -44 27 -47 32 -26 49
12 10 12 16 0 39 -16 32 -19 66 -3 57 5 -4 18 0 28 9 10 9 25 14 34 10 9 -3
26 1 39 10 12 9 37 16 54 16 17 0 44 7 60 15 16 8 39 12 51 9 13 -4 30 -1 38
6 9 7 29 13 45 12 16 0 32 4 35 9 11 17 47 10 52 -12 6 -20 6 -20 29 2 23 21
24 21 31 3 13 -36 27 -32 61 17 19 27 39 49 44 49 5 0 6 -6 2 -12 -5 -8 -1 -8
12 2 36 26 44 44 44 91 0 47 -1 49 -112 162 -62 63 -121 117 -131 121 -17 5
-16 3 2 -20 12 -15 21 -33 21 -42 0 -8 17 -34 38 -56 86 -97 85 -96 66 -117
-9 -10 -25 -19 -36 -19 -25 0 -23 -27 3 -35 44 -14 -3 -32 -118 -44 -65 -7
-143 -21 -173 -32 -61 -21 -114 -26 -70 -6 14 6 41 23 60 37 19 15 51 33 70
40 19 8 45 20 57 28 26 16 75 110 66 126 -4 6 -6 25 -4 43 2 23 -3 34 -18 43
-19 9 -21 8 -21 -14 0 -40 -10 -56 -49 -75 -53 -27 -88 -33 -110 -19 -16 10
-26 6 -69 -25 -58 -43 -89 -46 -150 -15 -41 22 -44 22 -56 6 -7 -10 -21 -18
-31 -18 -9 0 -19 -9 -22 -20 -3 -11 -9 -20 -15 -20 -5 0 0 -10 11 -22 25 -26
36 -58 25 -67 -16 -11 -16 -51 0 -51 8 0 16 6 19 13 4 10 7 10 18 0 7 -7 29
-13 49 -14 l35 0 -45 -19 c-63 -27 -72 -25 -107 20 -29 38 -30 44 -26 112 4
48 14 91 34 134 15 35 26 64 22 64 -8 0 -43 -41 -43 -51 0 -5 -7 -17 -16 -27
-16 -19 -57 -113 -68 -156 -3 -14 -24 -43 -45 -65 -36 -37 -44 -41 -90 -41
-42 0 -56 5 -84 30 -19 17 -40 30 -45 30 -6 0 -16 9 -22 20 -6 11 -16 17 -25
14 -10 -4 -15 0 -15 12 0 11 -3 15 -10 8 -6 -6 2 -41 20 -97 17 -48 30 -94 30
-101 0 -8 6 -19 14 -25 16 -14 17 -52 2 -63 -13 -9 21 -59 46 -66 10 -2 41
-37 67 -76 43 -63 192 -238 274 -321 16 -16 35 -39 42 -50 26 -39 65 -206 74
-317 12 -140 22 -162 118 -250 28 -26 152 -80 165 -72 6 4 8 3 5 -3 -4 -6 33
-21 91 -36 l97 -27 23 25 c12 14 17 20 10 15 -18 -15 -32 -12 -63 14 l-28 24
42 43 c24 24 49 59 56 77 8 17 20 32 27 32 7 0 24 11 38 24 14 14 51 49 83 79
55 53 69 77 46 77 -30 0 28 75 149 196 24 24 41 48 37 53 -3 6 -1 11 5 11 6 0
9 4 5 9 -3 5 3 16 13 23 10 7 36 39 57 70 22 32 44 58 48 58 5 0 22 14 37 31
l29 30 20 -20 c12 -12 16 -21 10 -21 -6 0 -9 -10 -7 -22 2 -17 11 -24 30 -26
20 -2 32 -13 44 -38 9 -19 20 -34 25 -34 5 0 9 -7 9 -15 0 -8 5 -15 10 -15 6
0 10 4 10 8 0 5 6 9 13 9 6 0 20 4 30 8 9 4 17 3 17 -3 0 -5 9 -12 21 -15 15
-4 19 -2 15 10 -4 9 -1 13 6 10 13 -4 48 29 48 45 0 4 -6 8 -13 8 -19 0 -91
79 -116 128 l-22 43 26 -7 c21 -5 25 -3 25 14 0 17 -7 21 -37 24 l-38 3 -17
70 c-34 133 -40 200 -34 370 3 63 20 114 46 129 32 20 70 65 70 83 -1 15 -3
14 -14 -5 -11 -21 -14 -22 -25 -8 -14 16 -41 22 -41 9 0 -5 -14 -16 -31 -26
-38 -21 -59 -9 -59 34 0 27 2 29 35 25 l35 -5 -19 25 c-20 25 -19 54 2 54 6 0
2 6 -8 14 -16 12 -18 18 -8 37 22 47 23 57 2 52 -17 -5 -19 -1 -14 51 6 72 12
82 36 60 17 -15 21 -16 34 -3 7 8 14 28 16 44 2 31 -18 85 -33 85 -21 0 -6 48
22 68 42 32 55 28 68 -20 6 -24 18 -65 28 -91 14 -40 15 -56 5 -104 -6 -31
-18 -67 -26 -80 -17 -26 -55 -31 -55 -8 0 8 -4 15 -8 15 -11 0 1 -101 16 -125
8 -14 12 -16 12 -5 0 10 8 6 25 -13 l24 -27 14 48 c30 99 39 161 28 195 -30
96 -30 193 -2 218 28 24 33 52 16 99 -27 76 -62 80 -125 15 -24 -25 -50 -45
-57 -45 -7 0 -13 -6 -13 -14 0 -8 -5 -18 -12 -22 -6 -4 -9 -3 -6 2 2 5 13 27
23 49 10 22 33 54 52 70 30 26 36 38 42 95 5 36 5 74 1 85 -11 30 -5 176 10
219 10 30 10 65 1 170 -36 400 -43 418 -231 606 -55 56 -88 80 -125 93 -27 10
-90 38 -140 62 -81 40 -114 50 -265 78 -14 3 -36 3 -50 0z m490 -163 c8 -5 11
-10 5 -10 -5 0 -17 5 -25 10 -8 5 -10 10 -5 10 6 0 17 -5 25 -10z m-1568 -222
c-7 -7 -12 -8 -12 -2 0 14 12 26 19 19 2 -3 -1 -11 -7 -17z m1238 -893 c27
-14 28 -18 18 -40 -6 -14 -16 -25 -22 -26 -6 0 -60 -2 -121 -5 l-110 -4 28 25
c15 14 46 28 67 31 22 4 48 13 57 20 24 18 48 17 83 -1z m-83 -102 c-7 -6 -42
-13 -79 -16 -10 -1 -18 -5 -18 -9 0 -5 -9 -3 -20 4 -14 9 -16 14 -7 20 15 9
133 11 124 1z m377 -36 c11 -10 9 -16 -11 -30 -19 -15 -23 -15 -23 -3 0 8 -3
21 -6 30 -8 20 22 22 40 3z m-414 -37 c0 -5 -4 -10 -9 -10 -6 0 -13 5 -16 10
-3 6 1 10 9 10 9 0 16 -4 16 -10z m-74 -34 c10 -41 39 -60 80 -53 33 6 35 5
18 -8 -11 -8 -42 -15 -72 -15 -33 0 -63 -7 -80 -17 l-26 -18 59 -6 c33 -3 73
-1 88 4 31 10 50 1 27 -13 -20 -13 -93 -12 -166 1 -78 14 -86 25 -25 33 51 7
65 19 36 30 -8 3 -15 1 -15 -4 0 -6 -12 -9 -27 -9 -24 2 -25 2 -5 6 12 2 27
14 33 26 14 28 50 67 61 67 4 0 10 -11 14 -24z m-736 -45 c0 -5 -15 -13 -32
-16 -18 -4 -37 -11 -43 -15 -18 -13 -55 -18 -61 -9 -3 5 14 18 38 28 46 21 98
27 98 12z m24 -40 c-9 -9 -49 -15 -69 -11 -5 1 8 8 30 15 41 13 56 11 39 -4z
m863 -27 c-3 -3 -12 -4 -19 -1 -8 3 -5 6 6 6 11 1 17 -2 13 -5z m-857 -29 c0
-8 -7 -15 -15 -15 -16 0 -20 12 -8 23 11 12 23 8 23 -8z m182 3 c19 -16 35
-56 16 -41 -7 5 -26 19 -42 31 -24 19 -26 22 -9 22 10 0 26 -6 35 -12z m-250
-95 c14 -18 -18 -29 -37 -13 -18 15 -19 34 -3 63 11 22 12 21 21 -8 5 -17 14
-36 19 -42z m-172 -77 c0 -11 -19 -15 -25 -6 -3 5 1 10 9 10 9 0 16 -2 16 -4z"/>
<path d="M10600 15596 c0 -7 16 -17 35 -23 29 -9 35 -9 35 3 0 8 -7 14 -15 14
-8 0 -15 4 -15 8 0 4 -9 8 -20 9 -11 1 -20 -4 -20 -11z"/>
<path d="M10634 15424 l-26 -55 22 -62 c12 -34 26 -66 31 -71 5 -6 9 42 9 117
0 70 -2 127 -5 127 -2 0 -16 -25 -31 -56z"/>
<path d="M10553 14766 c-15 -13 -23 -28 -19 -34 4 -7 8 -56 10 -109 2 -54 7
-117 11 -140 7 -39 6 -43 -12 -43 -21 0 -56 32 -48 43 3 4 0 3 -5 -1 -21 -17
-12 -170 11 -198 15 -19 25 -127 15 -162 -7 -25 -6 -36 4 -42 16 -10 5 -30
-17 -30 -13 0 -13 -3 -3 -15 10 -12 10 -19 2 -27 -19 -19 -14 -36 10 -40 25
-3 26 -16 12 -130 -6 -45 -24 -69 -24 -31 0 13 -3 14 -12 5 -13 -13 -17 -33
-21 -112 -2 -30 -11 -70 -20 -88 -21 -39 -25 -96 -7 -117 17 -21 25 -84 8 -67
-7 7 -20 12 -30 12 -12 0 -18 7 -18 21 0 11 -4 18 -8 15 -4 -2 -6 25 -5 61 3
65 -10 109 -28 98 -5 -4 -9 2 -9 12 -1 39 -28 -33 -40 -107 -20 -121 -28 -161
-45 -230 -40 -159 -63 -310 -47 -310 21 0 89 167 138 338 5 19 24 14 24 -6 0
-10 -3 -22 -6 -25 -4 -4 -8 -19 -10 -34 -9 -94 -15 -136 -20 -145 -4 -6 -9
-28 -10 -49 -3 -24 -13 -47 -29 -63 -56 -56 -29 -64 218 -66 l147 -1 -2 918
-3 917 -43 2 c-32 2 -50 -3 -69 -20z m-296 -1608 c-3 -8 -6 -5 -6 6 -1 11 2
17 5 13 3 -3 4 -12 1 -19z m1 -53 c-6 -14 -13 -23 -15 -21 -5 5 15 46 22 46 3
0 -1 -11 -7 -25z"/>
<path d="M2947 14512 c-21 -2 -40 -9 -43 -17 -3 -7 -14 -11 -25 -8 -10 3 -19
0 -19 -6 0 -6 -5 -11 -11 -11 -5 0 -8 4 -5 9 3 4 -6 6 -19 3 -14 -2 -25 -8
-25 -13 0 -5 -9 -9 -19 -9 -11 0 -26 -8 -33 -18 -7 -11 -24 -25 -38 -32 -14
-7 -31 -21 -38 -32 -7 -10 -20 -18 -28 -18 -8 0 -13 -5 -11 -12 1 -7 -18 -18
-43 -26 -25 -8 -58 -20 -75 -27 -16 -7 -47 -19 -67 -26 -21 -7 -38 -17 -38
-22 0 -5 -7 -6 -16 -3 -8 3 -13 2 -10 -3 3 -5 -5 -12 -19 -15 -23 -6 -84 -62
-77 -72 2 -5 -44 -52 -72 -74 -18 -13 -19 -13 -11 0 5 8 -6 3 -24 -12 -18 -16
-38 -28 -44 -28 -7 0 -4 -5 6 -11 9 -5 22 -7 28 -4 17 11 5 -42 -15 -64 -19
-21 -19 -21 0 -22 11 0 13 -3 7 -6 -7 -2 -13 -11 -13 -19 0 -8 -6 -17 -14 -20
-28 -11 -56 -96 -60 -181 -1 -13 -4 -23 -7 -23 -4 0 -3 -15 1 -34 5 -22 3 -39
-3 -45 -8 -8 -7 -11 2 -11 7 0 11 -6 8 -14 -3 -8 -9 -41 -13 -73 -3 -32 -8
-62 -11 -68 -2 -5 2 -2 10 8 14 17 16 17 25 2 6 -12 2 -34 -14 -74 -13 -31
-23 -65 -23 -76 l0 -20 9 20 c7 16 9 17 9 3 1 -9 -2 -24 -5 -33 -6 -13 -9 -14
-16 -3 -6 8 -7 1 -3 -22 4 -19 6 -89 5 -155 -1 -123 0 -129 51 -242 10 -23 19
-45 19 -48 0 -6 3 -11 48 -65 16 -19 32 -46 36 -60 10 -33 29 -74 39 -81 13
-9 11 -72 -3 -113 -13 -40 -31 -49 -24 -13 4 20 4 20 -4 2 -15 -32 -25 -103
-13 -85 10 13 11 13 11 0 -1 -8 -7 -24 -15 -34 -8 -11 -15 -34 -15 -50 0 -25
2 -28 11 -16 9 12 10 12 5 -3 -3 -10 -6 -21 -6 -23 0 -3 -5 -2 -12 2 -8 5 -9
2 -5 -10 9 -22 -2 -68 -14 -60 -5 3 -9 -2 -9 -10 0 -9 5 -16 11 -16 12 0 1
-43 -12 -48 -5 -2 -9 -8 -9 -13 0 -6 5 -7 11 -3 7 4 9 0 6 -12 -3 -11 -11 -38
-18 -62 -7 -23 -14 -40 -17 -38 -2 3 -20 -14 -39 -37 -20 -23 -39 -43 -44 -45
-5 -2 -9 -8 -9 -13 0 -6 5 -7 10 -4 6 3 11 3 11 -2 6 -36 5 -54 -4 -60 -6 -4
-8 5 -3 23 5 23 4 26 -4 11 -6 -9 -16 -15 -22 -11 -6 4 -8 -1 -4 -14 5 -16 1
-22 -21 -30 -19 -7 -22 -11 -10 -11 10 -1 26 3 35 8 11 6 21 4 30 -5 11 -12
10 -15 -3 -20 -10 -4 -13 -13 -10 -24 3 -10 0 -22 -6 -26 -7 -4 -9 -3 -5 4 3
6 1 14 -6 18 -7 4 -10 4 -6 -1 12 -13 -20 -64 -50 -79 -28 -15 -59 -45 -62
-60 -1 -5 4 -13 12 -17 8 -5 0 -7 -20 -4 -23 2 -32 0 -29 -8 3 -7 11 -11 18
-9 9 2 7 -4 -5 -17 -20 -22 -63 -30 -50 -9 4 7 3 8 -5 4 -6 -4 -9 -11 -6 -16
3 -5 -11 -17 -31 -26 -44 -21 -65 -51 -59 -86 3 -15 0 -30 -5 -33 -8 -5 -8
-11 0 -20 8 -9 4 -17 -16 -30 -14 -9 -23 -19 -20 -22 6 -6 -39 -33 -55 -33 -5
0 -18 -9 -29 -20 -11 -11 -29 -20 -39 -20 -23 0 -81 -31 -81 -44 0 -4 8 -5 18
-1 12 4 14 3 6 -5 -6 -6 -18 -12 -25 -14 -23 -3 -62 -28 -91 -55 -46 -45 -82
-76 -85 -73 -10 8 -21 -4 -46 -48 -16 -28 -25 -50 -21 -50 5 0 3 -5 -4 -12 -7
-7 -12 -23 -12 -38 0 -27 -15 -52 -74 -123 -21 -26 -51 -73 -66 -105 -45 -94
-141 -244 -188 -291 -41 -41 -46 -50 -62 -135 -30 -157 -41 -244 -35 -278 4
-22 -2 -63 -20 -123 -119 -412 -132 -770 -56 -1605 11 -124 30 -337 41 -475
11 -137 30 -328 41 -423 13 -106 18 -177 13 -182 -6 -6 -55 -12 -109 -15 -131
-7 -551 -23 -637 -24 l-68 -1 0 -1069 0 -1070 31 11 c24 8 33 8 39 -2 7 -11
19 -9 60 8 59 25 70 26 70 12 0 -13 -46 -86 -75 -120 -12 -14 -25 -34 -28 -45
-8 -24 79 69 99 107 14 27 22 31 82 43 30 6 33 5 29 -11 -3 -11 -11 -38 -18
-62 -7 -23 -18 -42 -26 -42 -7 0 -13 -5 -13 -11 0 -5 4 -7 10 -4 5 3 10 1 10
-4 0 -20 -52 -141 -59 -137 -4 3 -13 1 -21 -5 -13 -7 -12 -9 3 -9 9 0 17 -1
17 -3 0 -19 -53 -162 -65 -173 -9 -9 -13 -24 -10 -33 3 -10 -17 -80 -45 -157
-27 -76 -50 -144 -50 -152 0 -8 -9 -16 -20 -19 -22 -6 -27 -29 -7 -36 10 -3
10 -11 0 -39 -10 -27 -13 -467 -13 -2071 l0 -2037 3033 0 c2130 0 3028 3 3017
11 -11 8 -6 8 20 3 19 -4 682 -9 1473 -11 l1437 -3 29 21 c27 20 37 21 124 14
52 -4 107 -13 122 -21 23 -12 142 -14 721 -14 l694 0 0 149 c0 147 0 150 -22
154 l-23 4 23 2 c16 1 22 7 22 26 0 14 -6 25 -12 25 -9 0 -8 4 2 10 8 5 10 10
4 10 -5 0 -15 -5 -22 -12 -9 -9 -12 -9 -12 1 0 11 -3 11 -17 0 -9 -8 -14 -9
-11 -4 4 6 3 17 -2 25 -13 21 6 48 37 52 16 2 27 10 29 20 1 10 -1 17 -4 17
-4 -1 -14 -1 -22 1 -11 1 -9 4 5 10 17 7 14 9 -13 9 -22 1 -31 5 -26 12 4 7 0
9 -14 5 -11 -4 -23 -3 -25 2 -7 10 31 8 55 -2 50 -22 48 -65 48 929 l0 925
-37 -5 c-21 -2 -58 -7 -83 -11 -25 -3 -65 -7 -90 -10 -25 -2 -67 -8 -95 -13
-27 -5 -95 -13 -150 -16 -55 -3 -108 -9 -117 -11 -16 -5 -17 -25 -14 -242 4
-254 -21 -680 -48 -808 -11 -52 -12 -106 -5 -252 4 -103 13 -309 19 -459 7
-149 12 -277 13 -285 0 -7 -1 -27 -1 -44 l-2 -31 -147 -12 c-82 -7 -308 -14
-503 -15 -195 -2 -420 -9 -500 -15 -80 -6 -188 -14 -240 -16 -52 -3 -119 -10
-147 -16 -29 -6 -153 -12 -276 -13 -123 -1 -228 -6 -234 -9 -7 -4 -92 -10
-190 -13 -185 -6 -358 9 -484 41 -31 8 -79 15 -105 15 -27 0 -67 5 -89 11 -22
6 -69 14 -105 19 -36 5 -112 18 -170 30 -58 11 -139 25 -180 31 -41 6 -88 18
-105 26 -33 17 -161 32 -340 38 -207 8 -367 25 -417 46 -26 10 -57 19 -69 19
-12 0 -45 7 -73 15 -28 7 -73 19 -99 26 -59 15 -134 63 -143 92 -4 12 -11 25
-16 28 -16 10 -27 80 -28 169 0 47 -5 117 -10 155 -23 171 -70 993 -105 1835
-3 69 -12 199 -20 290 -22 246 -35 457 -45 725 -5 132 -14 321 -20 420 -6 99
-12 380 -14 625 -4 438 -3 447 20 550 13 58 33 169 44 247 11 78 25 164 31
190 6 26 15 91 20 143 5 52 16 158 24 235 9 77 18 167 20 200 3 33 7 71 11 85
10 41 26 181 28 240 2 43 6 56 19 58 9 2 28 23 42 47 14 24 32 49 40 55 19 16
1 51 -55 105 l-42 40 7 120 c4 66 12 129 18 140 7 12 12 77 12 160 1 162 15
507 21 516 2 4 6 28 9 55 3 27 15 83 25 124 59 229 60 235 40 358 -17 113 -14
176 10 221 5 11 10 31 10 45 0 16 5 24 13 21 6 -3 19 -1 27 5 12 7 9 15 -16
47 l-31 38 34 50 c19 28 43 59 52 70 12 14 19 39 20 78 2 61 -7 70 -50 46 -11
-5 -27 -9 -37 -7 -12 2 -9 8 13 22 16 11 35 19 42 19 7 0 16 15 19 34 3 18 10
33 15 33 16 0 29 38 23 68 -6 28 -31 44 -61 42 -9 -1 -18 37 -33 132 -5 37
-23 96 -40 131 -16 35 -30 75 -30 89 0 14 -9 60 -20 103 -11 43 -20 91 -20
106 0 45 -9 60 -30 49 -11 -6 -21 -6 -24 -1 -3 5 -15 7 -25 4 -29 -8 -33 12
-46 232 -7 124 -17 178 -35 197 -9 10 -22 40 -30 68 -7 27 -17 50 -21 50 -4 0
-5 8 -2 19 3 11 -2 21 -11 24 -9 4 -16 11 -16 17 0 6 4 9 9 6 5 -3 11 5 13 19
3 15 1 22 -5 18 -6 -4 -8 0 -4 10 4 11 1 17 -7 17 -15 0 -27 28 -47 105 -7 28
-18 55 -25 60 -13 11 -19 61 -30 240 -4 82 -2 126 9 175 l16 65 -36 65 c-19
36 -41 69 -49 73 -8 4 -14 14 -14 21 0 24 -139 106 -205 121 -5 2 -26 11 -45
22 -29 17 -35 26 -34 52 1 17 -2 31 -8 31 -5 0 -6 -4 -3 -10 3 -5 2 -10 -4
-10 -5 0 -13 9 -16 20 -4 11 -11 17 -17 14 -6 -4 -8 -3 -5 3 3 5 -17 33 -44
62 -38 40 -48 58 -43 73 4 14 2 18 -5 14 -6 -4 -11 -1 -11 7 0 12 -28 77 -34
77 -2 0 -1 -21 3 -73 0 -10 5 -15 11 -12 6 3 10 1 10 -4 0 -18 -17 -12 -32 12
-8 12 -13 32 -12 45 3 16 0 21 -8 16 -6 -4 -8 -3 -4 4 3 6 0 17 -8 25 -18 18
-8 32 10 16 10 -8 9 -2 -2 20 -9 17 -19 31 -24 31 -5 0 -7 7 -4 15 4 8 1 15
-4 15 -6 0 -18 15 -27 34 -13 26 -14 39 -6 55 14 25 14 41 1 21 -6 -10 -10
-11 -10 -2 0 6 -5 12 -10 12 -7 0 -7 -8 1 -22 10 -21 10 -21 -4 -8 -23 23 -30
57 -13 57 9 0 12 -5 9 -10 -3 -6 -1 -7 5 -3 18 11 14 29 -13 66 -14 19 -25 42
-25 52 0 10 -4 18 -8 18 -13 0 -52 75 -52 98 0 12 -5 24 -10 27 -6 4 -8 10 -5
15 3 5 -3 7 -13 5 -14 -2 -26 8 -41 36 -13 22 -27 37 -32 34 -5 -3 -6 2 -2 11
6 15 7 15 21 -2 14 -18 14 -18 9 1 -3 11 -11 39 -17 62 -6 23 -22 56 -36 73
-14 16 -27 36 -29 42 -6 29 -30 78 -37 78 -4 0 -8 9 -8 20 0 25 17 26 24 3 3
-10 17 -31 31 -48 l26 -30 -26 44 c-15 24 -28 58 -30 75 -1 17 -8 43 -14 59
-9 22 -6 40 16 100 14 39 27 94 29 122 2 42 -3 57 -33 102 -19 29 -35 66 -35
83 -1 16 -4 30 -8 30 -9 0 -30 138 -25 165 2 11 4 23 4 28 1 4 8 7 16 7 21 0
19 27 -4 39 -10 6 -22 25 -25 43 -12 63 -17 93 -21 141 -4 46 -11 66 -53 139
-11 20 -19 38 -17 40 3 2 1 20 -4 39 -5 19 -12 47 -16 64 l-7 30 21 -24 c12
-13 21 -19 21 -13 0 6 -13 21 -30 34 -16 12 -32 30 -36 40 -3 10 -11 24 -18
30 -6 7 -29 45 -50 83 -21 39 -44 77 -52 85 -7 8 -24 27 -36 41 -56 64 -238
168 -334 189 -26 6 -74 27 -106 47 -45 28 -68 36 -99 35 -23 -1 -44 -4 -49 -7
-4 -3 -43 0 -86 6 -98 13 -138 16 -187 11z m-11 -356 c-5 -20 -3 -23 14 -19
14 4 20 0 20 -10 0 -9 -7 -17 -17 -19 -15 -3 -15 -4 1 -17 14 -12 17 -12 14
-1 -3 13 23 21 60 20 6 0 20 -1 30 -1 9 0 26 1 37 4 11 2 26 0 33 -6 7 -5 28
-7 46 -4 24 4 39 1 47 -9 6 -8 17 -14 24 -14 15 0 61 -39 58 -50 -1 -5 11 -13
27 -19 21 -7 28 -14 24 -26 -4 -9 -3 -15 2 -13 5 2 11 -1 14 -7 2 -5 16 -20
30 -32 14 -11 39 -47 55 -80 19 -36 58 -85 103 -128 39 -39 72 -74 72 -79 0
-4 6 -14 14 -21 20 -20 30 -103 15 -121 -10 -12 -9 -13 3 -9 11 5 16 -1 16
-20 0 -14 8 -32 18 -40 18 -13 18 -14 2 -20 -10 -4 -15 -12 -11 -18 3 -6 1 -7
-6 -3 -6 4 -9 11 -6 16 5 8 -50 45 -131 88 -47 25 -161 31 -211 11 -15 -6 -41
-13 -58 -15 -16 -2 -39 -7 -50 -11 -11 -4 -22 -7 -25 -8 -3 0 -15 -6 -27 -13
-13 -7 -23 -11 -23 -8 0 8 -60 -56 -71 -76 -9 -16 -7 -20 10 -25 12 -3 21 -7
21 -9 0 -9 -54 -90 -68 -101 -11 -9 -10 -15 8 -33 16 -16 19 -24 10 -30 -9 -6
-9 -13 -1 -28 6 -11 11 -34 11 -50 0 -30 33 -82 44 -71 4 3 -3 26 -14 50 -21
47 -27 109 -10 109 6 0 10 -4 10 -10 0 -13 27 -13 32 0 4 13 48 1 48 -14 0 -7
45 -12 143 -14 78 -2 148 -8 155 -14 8 -7 12 -7 12 1 0 6 11 11 24 11 14 0 28
5 31 10 4 6 24 18 46 27 21 8 39 19 39 24 0 5 7 9 15 9 10 0 15 -10 15 -32 0
-35 8 -34 15 2 2 13 11 30 20 40 8 9 12 20 8 25 -5 4 -2 5 5 1 9 -6 11 -1 8
17 -4 24 -3 25 32 15 21 -6 41 -12 45 -15 13 -8 -44 -42 -59 -36 -10 4 -14 -4
-14 -25 0 -26 4 -31 26 -34 21 -2 30 -13 49 -60 13 -31 21 -59 18 -62 -3 -3
-2 -17 1 -33 6 -21 9 -24 17 -12 5 9 7 -8 4 -46 -3 -33 -7 -100 -10 -149 -4
-49 -7 -92 -7 -95 -4 -20 16 -59 27 -55 8 4 15 -10 21 -43 4 -26 8 -50 9 -53
14 -61 15 -84 2 -99 -8 -9 -18 -27 -22 -41 -4 -14 -17 -33 -29 -44 -12 -10
-20 -22 -18 -27 1 -5 -5 -9 -13 -9 -7 0 -18 -6 -22 -14 -15 -27 -85 -68 -96
-57 -18 18 -28 12 -21 -14 4 -15 2 -25 -5 -25 -6 0 -11 7 -11 15 0 24 -19 18
-32 -10 -6 -14 -17 -25 -23 -25 -7 0 -47 -34 -89 -76 -82 -80 -146 -117 -232
-133 -37 -7 -56 -6 -78 5 -37 18 -62 18 -70 -1 -4 -12 -23 -15 -85 -15 -95 0
-147 17 -211 70 -25 20 -60 45 -79 55 -19 9 -53 36 -75 60 -23 23 -55 49 -72
58 -16 8 -48 34 -71 56 -22 22 -43 38 -47 34 -3 -3 -6 0 -6 7 0 7 -6 21 -14
29 -13 14 -13 22 4 58 12 27 15 44 8 51 -7 7 -3 12 11 17 33 10 25 30 -36 96
-32 33 -64 71 -71 82 -8 12 -28 29 -45 37 -36 17 -42 40 -51 183 -4 76 -2 82
29 78 6 0 10 15 9 37 -2 49 -3 50 -15 32 -9 -13 -10 -13 -6 0 2 8 9 15 16 15
6 0 15 6 20 13 6 10 10 4 14 -17 11 -54 32 -28 30 37 l-2 57 11 -47 c8 -40 14
-48 33 -48 12 0 37 -8 56 -17 18 -9 57 -19 86 -21 64 -5 133 6 113 18 -7 5
-15 16 -16 24 -1 9 1 14 5 12 3 -2 24 4 46 14 22 11 49 19 61 20 11 0 29 6 40
14 18 14 18 15 -8 25 -16 6 -28 12 -28 13 0 2 23 3 50 3 61 0 67 -11 52 -107
-5 -34 -9 -64 -7 -66 7 -7 46 70 42 82 -3 7 -2 28 2 47 4 19 3 41 -2 50 -6 9
-7 25 -2 35 5 11 7 22 7 27 -1 4 3 7 10 7 6 0 9 3 6 6 -4 3 -15 1 -26 -5 -18
-10 -22 -6 -38 34 -9 25 -20 45 -24 45 -4 0 -11 16 -14 35 -4 19 -12 36 -19
37 -7 0 -16 2 -22 2 -5 1 -15 5 -21 9 -18 10 -234 18 -234 8 0 -5 -6 -9 -12
-8 -58 2 -78 -5 -113 -40 -20 -21 -41 -50 -47 -65 -16 -46 -34 -41 -37 10 -3
58 -4 66 -14 73 -5 4 7 38 27 76 20 38 35 78 35 89 -1 16 -2 17 -6 2 -2 -10
-8 -18 -13 -18 -4 0 -11 -12 -15 -27 -4 -16 -9 -23 -11 -18 -3 6 5 37 15 68
11 31 18 57 15 57 -3 0 1 6 8 14 7 8 15 12 17 10 8 -7 31 26 31 46 0 11 11 31
25 44 14 13 25 29 25 35 0 7 7 25 15 40 12 24 22 29 62 33 45 4 129 36 120 45
-3 2 -17 -2 -32 -9 -23 -10 -29 -10 -33 0 -2 6 -8 12 -13 12 -6 0 -8 -3 -6 -7
3 -5 -6 -8 -19 -8 -13 0 -22 5 -20 10 2 6 8 9 14 8 6 -2 9 3 6 10 -5 14 41 67
58 67 12 0 -9 -37 -24 -43 -10 -4 -10 -6 0 -6 6 -1 22 11 35 25 55 65 86 94
110 103 20 8 27 7 27 -2 0 -6 11 0 23 14 13 14 31 28 41 32 15 6 16 10 6 22
-11 13 -7 15 21 15 23 0 29 3 21 9 -11 6 -10 10 5 16 10 5 22 7 27 6 5 -1 6 5
3 13 -5 13 5 23 27 25 4 1 5 -10 2 -23z m-554 -508 c-7 -7 -12 -8 -12 -2 0 14
12 26 19 19 2 -3 -1 -11 -7 -17z m1120 -189 c21 -5 50 -21 65 -34 l28 -24
-105 -1 c-64 -1 -97 -5 -85 -9 16 -7 9 -10 -30 -16 -27 -4 -60 -13 -72 -21
-27 -17 -37 -18 -27 -2 7 11 -24 8 -71 -7 -17 -6 -18 -5 -3 4 9 6 43 17 75 25
56 14 57 14 18 15 -35 1 -38 3 -25 16 28 28 115 64 155 64 22 1 57 -4 77 -10z
m218 -59 c0 -5 -4 -10 -10 -10 -5 0 -10 5 -10 10 0 6 5 10 10 10 6 0 10 -4 10
-10z m57 -74 c-8 -20 -27 -21 -27 -1 0 8 5 15 11 15 5 0 7 6 3 13 -5 9 -4 9 6
0 7 -6 10 -19 7 -27z m-342 15 c7 -12 -24 -22 -67 -23 -18 0 -38 -5 -45 -10
-7 -5 -17 -7 -22 -4 -14 9 -3 34 17 39 32 9 111 7 117 -2z m-808 -15 c3 -3 4
-8 2 -11 -7 -6 -211 -36 -216 -31 -2 2 11 16 29 31 30 26 37 27 105 23 40 -3
76 -8 80 -12z m1176 -16 c-3 -11 -9 -17 -15 -14 -5 3 -5 11 1 18 6 7 7 17 3
21 -4 5 -2 5 5 2 6 -4 9 -16 6 -27z m-523 -4 c0 -3 -4 -8 -10 -11 -5 -3 -10
-1 -10 4 0 6 5 11 10 11 6 0 10 -2 10 -4z m-523 -22 c-3 -3 -12 -4 -19 -1 -8
3 -5 6 6 6 11 1 17 -2 13 -5z m643 -4 c0 -10 -63 -30 -97 -30 -28 0 -26 22 2
32 31 10 95 9 95 -2z m-740 -45 c-3 -5 -43 -10 -90 -11 -114 -1 -132 -2 -126
-13 7 -10 -43 -46 -51 -37 -8 8 25 56 40 57 47 4 70 9 75 14 11 10 157 1 152
-10z m39 -41 c11 -10 -12 -15 -60 -12 l-54 3 35 12 c31 10 66 8 79 -3z m651
-24 c0 -5 -4 -10 -10 -10 -5 0 -10 5 -10 10 0 6 5 10 10 10 6 0 10 -4 10 -10z
m-725 -120 c3 -5 1 -10 -4 -10 -6 0 -11 5 -11 10 0 6 2 10 4 10 3 0 8 -4 11
-10z m1494 -258 c-1 -33 -2 -34 -9 -12 -12 36 -12 62 0 55 6 -3 10 -23 9 -43z
m61 -55 c0 -5 -4 -5 -10 -2 -5 3 -10 14 -10 23 0 15 2 15 10 2 5 -8 10 -19 10
-23z m-95 -107 c-3 -5 0 -8 7 -5 7 3 18 -6 25 -20 9 -21 9 -25 -5 -26 -15 -1
-15 -2 1 -6 9 -2 17 -8 17 -13 0 -5 -7 -6 -17 -3 -10 4 -14 2 -10 -4 4 -6 1
-13 -7 -16 -8 -3 -18 5 -25 19 -14 32 -14 37 2 28 9 -6 9 -4 -1 8 -13 16 -7
48 10 48 5 0 6 -4 3 -10z m-18 -122 c-3 -8 -6 -5 -6 6 -1 11 2 17 5 13 3 -3 4
-12 1 -19z m174 -61 c-10 -9 -11 -8 -5 6 3 10 9 15 12 12 3 -3 0 -11 -7 -18z
m-83 -111 c14 -18 16 -30 3 -22 -5 4 -12 0 -14 -6 -4 -9 -8 -10 -14 -2 -4 6
-23 10 -40 8 -18 -1 -33 2 -33 8 0 6 -7 8 -15 5 -8 -4 -17 -2 -20 3 -3 5 -12
7 -19 4 -10 -4 -12 2 -9 20 3 14 11 26 19 26 8 0 11 6 7 16 -4 12 0 14 23 9
20 -5 25 -4 15 3 -7 5 -10 15 -6 22 6 10 54 -33 103 -94z m-1828 20 c0 -3 -4
-8 -10 -11 -5 -3 -10 -1 -10 4 0 6 5 11 10 11 6 0 10 -2 10 -4z m1970 -40 c0
-6 -7 -1 -15 10 -8 10 -15 23 -15 28 0 6 7 1 15 -10 8 -10 15 -23 15 -28z
m-1962 -21 c-3 -3 -9 2 -12 12 -6 14 -5 15 5 6 7 -7 10 -15 7 -18z m2008 3 c4
-7 3 -8 -4 -4 -7 4 -12 2 -12 -5 0 -7 -3 -10 -6 -6 -6 5 3 27 11 27 2 0 7 -5
11 -12z m-1975 -141 c1 -23 3 -34 6 -24 5 19 20 22 43 7 12 -8 12 -10 -3 -16
-9 -3 -14 -11 -10 -17 4 -7 -4 -8 -24 -4 -17 3 -35 1 -42 -6 -8 -8 -11 -8 -11
2 0 8 -10 11 -27 8 -16 -2 -37 -1 -48 4 -11 4 -15 8 -8 8 7 1 33 21 59 46 25
25 50 43 55 39 5 -3 10 -24 10 -47z m2107 -232 c-3 -3 -9 2 -12 12 -6 14 -5
15 5 6 7 -7 10 -15 7 -18z m-2378 -44 c0 -6 -4 -13 -10 -16 -5 -3 -10 1 -10 9
0 9 5 16 10 16 6 0 10 -4 10 -9z m-150 -251 c-8 -5 -19 -10 -25 -10 -5 0 -3 5
5 10 8 5 20 10 25 10 6 0 3 -5 -5 -10z m-40 -114 c0 -2 -7 -6 -15 -10 -8 -3
-15 -1 -15 4 0 6 7 10 15 10 8 0 15 -2 15 -4z m-24 -48 c-9 -5 -20 -7 -24 -4
-4 2 -14 0 -22 -6 -13 -8 -12 -9 2 -5 18 6 30 -1 22 -14 -9 -15 -44 10 -38 26
4 9 19 14 41 13 26 -1 31 -4 19 -10z m54 3 c0 -5 -7 -11 -15 -15 -15 -5 -20 5
-8 17 9 10 23 9 23 -2z m-160 -21 c-6 -12 -7 -20 -1 -20 5 0 12 5 14 10 3 6 4
5 3 -1 -3 -17 -44 -31 -52 -17 -4 7 -3 8 4 4 8 -4 12 0 12 12 0 20 8 32 22 32
5 0 4 -9 -2 -20z m142 -42 c-7 -7 -12 -8 -12 -2 0 14 12 26 19 19 2 -3 -1 -11
-7 -17z m1508 -113 c0 -8 -2 -15 -4 -15 -2 0 -6 7 -10 15 -3 8 -1 15 4 15 6 0
10 -7 10 -15z m39 -62 l0 -38 -14 50 c-8 28 -14 51 -15 53 0 2 7 -3 15 -12 8
-8 15 -31 14 -53z m100 56 c26 15 31 14 31 -5 0 -11 -6 -14 -22 -9 -16 4 -19
3 -9 -3 11 -8 10 -14 -4 -36 -10 -14 -14 -26 -10 -26 4 0 3 -6 -2 -12 -6 -7
-13 -26 -16 -43 -5 -20 1 -13 17 21 13 28 29 55 36 59 9 6 9 2 0 -16 -7 -13
-14 -40 -15 -61 -2 -38 -2 -38 18 -21 20 17 20 17 15 -4 -4 -13 -2 -23 3 -23
5 0 9 5 9 12 0 6 2 9 5 6 3 -3 -2 -25 -11 -49 -17 -44 -17 -45 10 -87 14 -23
22 -42 16 -42 -5 0 -10 -9 -10 -19 0 -10 -7 -21 -15 -25 -9 -3 -15 0 -15 10 0
9 5 12 13 8 6 -4 8 -3 4 1 -4 5 -13 10 -20 11 -7 1 -16 3 -22 4 -24 5 -35 -1
-35 -21 0 -11 -4 -17 -10 -14 -5 3 -10 1 -10 -4 0 -16 11 -13 33 7 16 13 19
14 15 2 -3 -8 1 -27 8 -41 8 -17 10 -36 5 -55 -7 -28 -8 -28 -15 -6 -4 12 -12
22 -18 22 -6 0 -8 9 -5 19 3 14 -2 21 -20 26 -19 4 -24 11 -20 26 4 13 -2 25
-19 35 -13 9 -24 22 -24 30 0 7 -6 11 -13 8 -20 -7 -33 13 -52 79 -18 64 -15
84 7 42 14 -25 14 -23 15 37 2 80 1 78 13 78 5 0 12 -11 16 -25 9 -37 21 -30
29 16 5 29 10 38 16 28 6 -10 9 -5 9 17 0 37 18 58 36 43 9 -7 19 -7 33 0z
m20 -133 c-9 -8 -10 -7 -5 7 3 10 7 24 7 30 1 7 3 4 6 -7 3 -10 -1 -23 -8 -30z
m-304 -96 c3 -5 1 -10 -4 -10 -6 0 -11 5 -11 10 0 6 2 10 4 10 3 0 8 -4 11
-10z m-1945 -17 c-1 -14 -76 -93 -83 -87 -3 4 7 20 24 36 16 16 26 34 23 40
-4 6 -2 8 4 4 6 -3 13 -2 17 4 7 12 15 13 15 3z m2303 -30 c-6 -14 -8 -14 -14
3 -12 30 -10 37 5 24 8 -6 12 -19 9 -27z m-318 -34 c-4 -5 -1 -9 4 -9 6 0 11
-5 11 -12 0 -9 -3 -9 -12 0 -14 14 -20 44 -7 36 5 -3 7 -10 4 -15z m355 -39
c0 -5 7 -10 15 -10 8 0 15 -4 15 -10 0 -16 -15 -12 -35 10 -10 11 -13 20 -7
20 7 0 12 -4 12 -10z m-310 -30 c0 -5 -2 -10 -4 -10 -3 0 -8 5 -11 10 -3 6 -1
10 4 10 6 0 11 -4 11 -10z m85 -20 c3 -6 -1 -7 -9 -4 -18 7 -21 14 -7 14 6 0
13 -4 16 -10z m201 -9 c-3 -4 5 -17 18 -28 18 -16 22 -28 18 -48 -3 -19 -7
-23 -13 -14 -4 7 -5 17 -3 21 3 4 -2 8 -11 8 -10 0 -15 7 -13 18 2 9 -3 22
-12 29 -11 9 -12 12 -2 13 7 0 10 5 6 12 -4 7 -3 8 5 4 6 -4 9 -11 7 -15z m74
4 c0 -6 -8 -11 -18 -11 -10 0 -19 5 -19 11 0 6 9 11 19 11 10 0 18 -5 18 -11z
m-110 -3 c0 -15 -11 -21 -27 -15 -12 5 -12 7 -1 14 17 11 28 11 28 1z m260 -2
c0 -5 -4 -10 -10 -10 -5 0 -10 5 -10 10 0 6 5 10 10 10 6 0 10 -4 10 -10z
m-399 -52 c-9 -22 -10 -22 -10 -1 -1 12 -7 24 -13 26 -10 4 -9 8 2 16 20 14
33 -10 21 -41z m295 7 c4 -14 4 -29 0 -32 -3 -4 -6 1 -6 11 0 9 -4 15 -9 11
-12 -7 -24 12 -16 25 11 18 24 11 31 -15z m-138 -19 c-3 -13 89 -106 105 -106
4 0 -5 12 -20 26 l-28 25 30 -4 c27 -5 28 -4 11 9 -24 17 -15 28 14 19 17 -5
20 -12 15 -32 -4 -16 -2 -22 5 -18 5 3 10 2 10 -2 0 -21 -51 -35 -139 -40 -79
-5 -100 -3 -112 10 -11 10 -20 12 -32 5 -12 -6 -17 -5 -17 4 0 7 -3 24 -6 38
-4 20 -3 22 5 10 9 -13 11 -13 11 2 0 30 36 41 70 22 24 -15 31 -15 45 -4 9 7
14 19 11 27 -3 8 -1 11 4 8 6 -3 10 -1 10 4 0 6 2 11 5 11 3 0 5 -6 3 -14z
m192 -90 c0 -14 -21 -26 -46 -26 -11 0 -10 4 3 20 20 23 43 26 43 6z m55 -76
c4 -7 -3 -8 -22 -4 -38 9 -42 14 -10 14 14 0 29 -5 32 -10z m-73 -25 c-3 -19
1 -27 19 -34 15 -5 32 -5 44 1 19 10 19 9 3 -8 -14 -15 -21 -16 -43 -6 -28 13
-40 34 -31 57 9 23 14 18 8 -10z m251 -595 c-3 -11 1 -28 8 -38 13 -15 12 -16
-3 -3 -18 14 -24 42 -11 54 10 11 11 8 6 -13z m76 -23 c0 -21 -1 -21 -9 -2
-12 28 -12 37 0 30 6 -3 10 -16 9 -28z m1200 -154 c1 -7 -3 -13 -9 -13 -5 0
-10 15 -9 33 0 27 2 29 9 12 5 -11 9 -26 9 -32z m-1051 -484 c-10 -5 -19 -20
-19 -32 -1 -18 -2 -18 -6 -4 -5 20 13 47 31 47 6 0 3 -5 -6 -11z m55 -70 c-6
-6 -7 3 -4 23 4 28 6 29 9 9 2 -13 0 -27 -5 -32z m1265 -141 c2 -16 0 -28 -5
-28 -18 0 -83 21 -83 27 0 14 37 33 60 30 19 -1 26 -9 28 -29z m-1176 -606
c-6 -5 -19 -17 -27 -28 -8 -10 -15 -14 -15 -7 0 15 28 43 43 43 9 0 8 -3 -1
-8z m52 -66 c-3 -9 -10 -16 -15 -16 -6 0 -5 9 1 21 13 24 24 20 14 -5z m70
-841 c-4 -8 -11 -15 -16 -15 -6 0 -5 6 2 15 7 8 14 15 16 15 2 0 1 -7 -2 -15z
m51 -825 c-10 -11 -20 -18 -23 -15 -7 6 18 35 31 35 5 0 2 -9 -8 -20z m47 -52
c-7 -7 -12 -8 -12 -2 0 14 12 26 19 19 2 -3 -1 -11 -7 -17z m-2258 -573 c20
-19 39 -35 43 -35 5 0 14 -18 21 -41 13 -43 52 -131 61 -139 3 -3 31 -54 61
-115 30 -60 65 -121 78 -134 12 -13 21 -29 19 -35 -2 -6 9 -21 25 -34 15 -13
28 -28 28 -33 0 -6 4 -15 10 -22 36 -45 78 -107 89 -134 7 -17 23 -41 37 -54
13 -12 24 -28 24 -35 0 -7 3 -14 8 -16 10 -4 54 -67 71 -100 8 -16 18 -28 23
-28 5 0 6 -10 3 -22 -6 -16 -4 -20 8 -15 11 4 14 2 10 -9 -4 -10 2 -17 16 -21
12 -3 24 -16 27 -28 3 -13 17 -32 30 -44 13 -11 24 -30 24 -41 0 -11 9 -25 20
-32 11 -7 20 -18 20 -25 0 -7 3 -13 8 -13 4 0 21 -23 37 -50 17 -27 33 -50 37
-50 4 0 28 -27 53 -60 25 -33 53 -60 61 -60 8 0 41 -25 72 -56 31 -31 46 -51
34 -44 -31 15 -34 10 -20 -27 10 -28 13 -30 24 -15 10 14 14 14 29 2 9 -7 23
-26 31 -42 13 -25 13 -28 -1 -28 -9 0 -16 -10 -17 -27 -2 -40 -1 -46 8 -67 5
-14 4 -17 -5 -11 -10 6 -11 3 -2 -13 14 -26 14 -35 1 -27 -6 3 -7 -1 -4 -9 3
-9 1 -16 -4 -16 -6 0 -9 -9 -7 -21 3 -15 0 -19 -10 -15 -14 5 -19 -5 -16 -31
1 -7 -5 -13 -14 -13 -8 0 -15 -4 -15 -9 0 -14 -62 -71 -72 -65 -4 3 -8 -2 -8
-10 0 -9 -7 -16 -15 -16 -8 0 -15 -4 -15 -10 0 -5 -7 -10 -15 -10 -8 0 -15 -3
-15 -8 0 -8 -74 -42 -93 -42 -6 0 -23 -6 -37 -13 -14 -7 -39 -14 -56 -15 -25
-2 -33 2 -37 19 -4 14 -11 20 -21 16 -8 -3 -16 -1 -18 5 -2 6 -14 -4 -25 -22
l-21 -34 -10 35 c-6 19 -11 26 -11 17 -1 -10 -10 -22 -22 -29 -19 -10 -20 -8
-14 10 5 18 2 21 -19 21 -14 0 -25 -5 -24 -11 2 -6 -3 -14 -11 -17 -8 -2 -11
-1 -9 4 9 14 -10 54 -25 54 -8 0 -20 -7 -27 -15 -11 -13 -14 -13 -26 2 -7 10
-14 34 -14 54 0 28 -5 38 -20 42 -16 4 -20 0 -20 -19 0 -13 -4 -24 -8 -24 -13
0 -34 44 -35 74 -1 14 -5 26 -9 26 -5 0 -8 5 -8 10 0 16 21 12 37 -7 14 -17
14 -17 8 2 -5 17 -2 16 22 -6 35 -33 77 -56 71 -39 -2 6 -8 12 -13 12 -16 1
-33 31 -27 47 4 10 1 12 -8 6 -8 -5 -11 -4 -7 1 7 13 -23 135 -32 129 -4 -2
-7 8 -8 23 0 15 -3 36 -6 48 -6 16 -2 23 17 32 31 14 39 56 15 86 -11 13 -19
28 -19 32 0 4 -11 19 -24 33 -22 23 -47 64 -93 152 -7 14 -24 38 -38 53 -14
15 -25 31 -25 35 0 4 -9 16 -20 26 -11 10 -20 24 -20 31 0 7 -18 29 -40 50
-22 21 -45 52 -50 70 -6 18 -17 35 -25 38 -8 3 -12 12 -9 21 3 8 1 15 -4 15
-6 0 -14 16 -18 35 -3 19 -12 35 -18 35 -14 0 -76 73 -76 89 0 5 6 12 13 14 6
3 2 6 -10 6 -24 1 -31 15 -13 26 16 10 -8 35 -31 35 -11 0 -19 7 -19 15 0 9
-7 18 -15 21 -8 4 -15 15 -15 26 0 16 -5 19 -21 15 -16 -4 -20 -2 -16 12 6 24
-10 51 -30 51 -12 0 -13 3 -4 13 8 10 6 19 -9 35 -11 12 -20 25 -19 29 4 24
-3 43 -13 41 -8 -2 -14 10 -16 28 -2 22 -9 34 -23 37 -21 6 -24 28 -8 60 9 15
9 22 1 25 -6 2 -9 9 -6 16 3 8 -4 16 -15 19 -12 3 -21 12 -21 21 0 9 -10 30
-21 46 -20 26 -20 32 -9 59 7 17 17 31 22 31 5 0 16 7 25 16 9 8 23 12 31 9 9
-3 13 -3 9 1 -8 8 21 44 35 44 5 0 25 10 46 23 38 24 154 63 207 70 17 2 33 5
37 6 4 0 23 -15 42 -34z m2276 -225 c-20 -13 -33 -13 -25 0 3 6 14 10 23 10
15 0 15 -2 2 -10z m34 -756 c27 -10 18 -19 -19 -19 -31 0 -33 2 -18 13 20 14
17 14 37 6z m-2 -96 c-17 -8 -26 -8 -34 0 -9 9 -4 12 23 11 32 0 33 -1 11 -11z
m-1172 -594 c0 -8 -4 -12 -10 -9 -5 3 -10 13 -10 21 0 8 5 12 10 9 6 -3 10
-13 10 -21z m133 -104 c31 -35 61 -98 97 -208 17 -51 35 -101 40 -110 42 -79
50 -129 28 -177 -8 -18 -16 -24 -27 -19 -38 16 -71 16 -71 0 0 -9 -4 -16 -10
-16 -5 0 -10 5 -10 11 0 6 -6 9 -14 6 -8 -3 -17 -1 -20 6 -4 7 -5 0 -3 -14 3
-17 -3 -30 -15 -38 -10 -6 -18 -20 -18 -31 0 -29 -36 -60 -70 -60 -19 0 -34
-7 -42 -20 -16 -24 -79 -28 -98 -5 -7 8 -29 19 -49 25 -22 6 -44 21 -56 39
-21 33 -54 46 -70 29 -7 -8 -5 -9 8 -5 9 4 17 2 17 -2 0 -5 -5 -11 -12 -13 -7
-3 -8 -9 -3 -19 5 -8 11 -33 12 -56 3 -39 1 -43 -19 -44 -46 -2 -64 4 -120 42
-32 21 -64 39 -72 39 -18 0 -47 -45 -40 -63 5 -15 -22 -31 -37 -21 -5 3 -9 12
-9 20 0 8 -4 14 -9 14 -15 0 -32 58 -18 63 9 3 9 8 0 18 -7 7 -13 22 -13 32 0
11 -23 41 -51 68 -28 27 -49 54 -47 60 3 9 8 8 18 -2 12 -13 16 -13 33 4 17
17 29 19 88 14 38 -3 71 -2 73 2 5 8 41 3 133 -17 33 -7 45 -6 54 4 16 20 40
18 32 -2 -3 -9 14 4 38 30 33 34 49 44 65 40 15 -4 31 4 54 26 18 17 29 34 26
37 -7 8 22 63 34 63 5 0 7 6 4 13 -2 7 11 53 30 103 33 86 39 116 37 177 -1
20 -5 26 -13 21 -7 -4 -5 1 4 12 10 11 14 25 10 30 -9 11 71 -72 101 -106z
m1076 -103 c-2 -1 -15 -11 -28 -22 l-24 -20 12 23 c6 12 19 22 28 22 9 0 14
-1 12 -3z m36 -77 c-3 -5 -12 -10 -18 -10 -7 0 -6 4 3 10 19 12 23 12 15 0z
m-867 -94 c31 -45 29 -58 -5 -45 -50 19 -93 75 -77 100 8 14 57 -18 82 -55z
m-1028 -46 c0 -5 -4 -10 -9 -10 -6 0 -13 5 -16 10 -3 6 1 10 9 10 9 0 16 -4
16 -10z m1067 -32 c-3 -7 -5 -2 -5 12 0 14 2 19 5 13 2 -7 2 -19 0 -25z m117
-184 c18 -17 22 -39 6 -29 -11 7 -33 45 -26 45 2 0 12 -7 20 -16z m-994 -220
c0 -8 -4 -12 -10 -9 -5 3 -10 10 -10 16 0 5 5 9 10 9 6 0 10 -7 10 -16z m160
-124 c0 -5 6 -10 13 -10 29 -1 79 -122 58 -143 -11 -11 -71 4 -71 18 0 7 -20
18 -43 24 -38 9 -46 16 -59 50 -21 52 -6 69 38 46 27 -14 30 -13 38 5 9 21 26
27 26 10z m1530 -211 c-7 -11 -14 -18 -17 -15 -3 3 0 12 7 21 18 21 23 19 10
-6z m-1443 -116 c-9 -9 -19 -14 -23 -11 -10 10 6 28 24 28 15 0 15 -1 -1 -17z
m60 -89 c-3 -3 -12 -4 -19 -1 -8 3 -5 6 6 6 11 1 17 -2 13 -5z m102 -134 c1
-33 -16 -50 -50 -50 -21 0 -29 7 -37 29 -14 40 -1 58 33 43 34 -16 37 -15 34
6 -3 30 2 38 11 17 5 -11 9 -31 9 -45z m489 8 c17 -17 15 -39 -5 -54 -31 -23
-53 -17 -53 14 0 29 16 52 35 52 6 0 16 -5 23 -12z m-164 -14 c26 -10 18 -41
-14 -64 -25 -18 -34 -19 -45 -10 -20 16 -19 39 2 62 17 19 31 22 57 12z m6712
-2495 c-1 -25 -14 -42 -17 -21 -8 49 -7 60 5 56 8 -3 13 -18 12 -35z m89 -10
c-18 -7 -18 -8 5 -9 14 -2 28 -2 33 -1 4 0 7 -3 7 -9 0 -6 -11 -10 -24 -10
-14 0 -28 -5 -31 -10 -4 -6 -10 -8 -14 -6 -4 3 -21 1 -37 -4 -28 -8 -28 -8 -4
-10 21 -2 19 -4 -10 -10 -32 -7 -33 -7 -7 -9 18 -1 26 -5 21 -12 -4 -7 -1 -10
7 -7 8 3 13 15 13 26 -1 23 10 29 21 12 3 -5 0 -10 -7 -11 -11 0 -11 -2 0 -6
19 -8 -17 -32 -48 -33 -20 0 -22 2 -10 11 12 8 8 9 -15 8 -16 -1 -41 3 -55 9
-17 7 -20 11 -8 11 26 1 32 21 13 39 -17 16 -17 16 -12 -1 4 -11 3 -16 -4 -12
-6 4 -8 13 -5 21 6 17 -23 16 -37 -1 -5 -6 -7 -3 -3 8 4 12 0 17 -17 18 -18 1
-19 2 -3 6 10 3 23 0 29 -6 7 -7 16 -7 29 0 23 13 58 3 58 -17 0 -22 28 -17
55 10 17 17 31 22 51 18 25 -5 26 -6 9 -13z m-238 -36 c0 -10 -4 -10 -16 -1
-9 7 -18 13 -20 15 -2 1 5 1 16 0 11 0 20 -7 20 -14z m-70 -29 c-3 -3 -12 -4
-19 -1 -8 3 -5 6 6 6 11 1 17 -2 13 -5z m64 -11 c13 -16 12 -17 -3 -4 -10 7
-18 15 -18 17 0 8 8 3 21 -13z m94 -31 c-3 -3 -11 0 -18 7 -9 10 -8 11 6 5 10
-3 15 -9 12 -12z m-128 -38 c-3 -3 -12 -4 -19 -1 -8 3 -5 6 6 6 11 1 17 -2 13
-5z m246 -21 c-7 -2 -21 -2 -30 0 -10 3 -4 5 12 5 17 0 24 -2 18 -5z"/>
<path d="M2680 13910 c-6 -11 -8 -20 -6 -20 3 0 10 9 16 20 6 11 8 20 6 20 -3
0 -10 -9 -16 -20z"/>
<path d="M3410 13855 c0 -8 4 -15 10 -15 5 0 7 7 4 15 -4 8 -8 15 -10 15 -2 0
-4 -7 -4 -15z"/>
<path d="M3580 13671 c0 -5 5 -13 10 -16 6 -3 10 -2 10 4 0 5 -4 13 -10 16 -5
3 -10 2 -10 -4z"/>
<path d="M2935 13410 c-7 -12 2 -30 16 -30 12 0 12 27 0 35 -5 3 -12 1 -16 -5z"/>
<path d="M3606 12975 c-21 -33 -80 -61 -163 -81 -111 -26 -181 -10 -260 59
-46 41 -29 6 22 -42 40 -39 43 -51 15 -76 -17 -15 -30 -17 -100 -11 -54 5 -80
4 -80 -3 0 -14 -85 -14 -110 -1 -13 7 -31 4 -65 -11 -36 -16 -49 -18 -61 -9
-17 15 -18 42 -1 59 6 7 -9 -2 -35 -20 -45 -31 -53 -33 -158 -37 -63 -3 -115
0 -122 5 -7 6 -22 13 -33 17 -16 5 -15 3 5 -13 28 -22 64 -31 127 -31 57 0
113 -23 113 -48 0 -22 -55 -133 -71 -142 -7 -5 -6 -12 3 -21 8 -8 17 -22 21
-31 10 -27 26 -22 32 10 21 96 29 121 51 155 27 41 52 47 78 18 13 -14 37 -19
123 -24 97 -6 110 -4 140 14 18 11 48 22 66 23 68 7 112 25 129 56 13 23 24
30 48 30 20 0 30 5 30 15 0 19 24 31 105 50 62 14 164 60 166 74 0 3 2 14 4
24 4 23 0 22 -19 -8z"/>
<path d="M2330 12981 c0 -14 47 -98 59 -105 7 -5 -45 103 -54 113 -3 2 -5 -1
-5 -8z"/>
<path d="M2831 12913 c-10 -26 -10 -27 4 -9 8 11 15 23 15 28 0 15 -7 8 -19
-19z"/>
<path d="M3135 12633 c-22 -13 -58 -17 -140 -19 -133 -2 -149 -7 -220 -63 -66
-53 -69 -74 -20 -127 20 -21 41 -49 48 -63 23 -49 75 -64 221 -64 141 -1 173
7 291 64 62 31 117 80 96 87 -6 2 -11 8 -11 13 0 6 4 8 9 5 5 -3 11 1 15 9 3
8 15 15 26 15 59 0 -23 98 -108 128 -83 30 -169 36 -207 15z m15 -73 c14 -8
25 -7 40 2 15 10 25 10 37 2 13 -8 23 -8 35 -1 13 8 21 7 35 -5 10 -9 27 -18
38 -20 12 -2 21 -13 23 -26 3 -22 -12 -30 -23 -12 -4 6 -11 8 -16 5 -17 -11
-9 -23 21 -30 28 -6 43 -25 19 -25 -5 0 -7 -4 -4 -10 3 -5 -1 -10 -9 -10 -8 0
-21 -7 -29 -15 -8 -8 -53 -30 -100 -50 -96 -39 -147 -44 -280 -23 -53 9 -76
16 -73 25 3 7 -1 10 -10 6 -16 -6 -18 1 -4 27 7 13 6 19 -5 24 -16 6 -21 66
-6 66 5 0 13 9 16 20 4 12 14 20 23 19 9 -1 25 1 35 6 9 4 24 4 33 1 9 -4 23
-1 31 6 14 11 73 23 131 27 13 0 32 -4 42 -9z m-325 -180 c3 -5 1 -10 -4 -10
-6 0 -11 5 -11 10 0 6 2 10 4 10 3 0 8 -4 11 -10z"/>
<path d="M3262 12478 c5 -15 28 -23 28 -10 0 5 -7 13 -16 16 -10 4 -14 1 -12
-6z"/>
<path d="M3220 12459 c0 -5 5 -7 10 -4 6 3 10 8 10 11 0 2 -4 4 -10 4 -5 0
-10 -5 -10 -11z"/>
<path d="M2596 12563 c-6 -14 -5 -15 5 -6 7 7 10 15 7 18 -3 3 -9 -2 -12 -12z"/>
<path d="M3541 11094 c0 -11 3 -14 6 -6 3 7 2 16 -1 19 -3 4 -6 -2 -5 -13z"/>
<path d="M3585 11090 c3 -5 10 -10 16 -10 5 0 9 5 9 10 0 6 -7 10 -16 10 -8 0
-12 -4 -9 -10z"/>
<path d="M3349 4734 c12 -15 21 -31 21 -36 0 -5 7 -16 15 -24 8 -9 16 -30 16
-47 1 -18 5 -45 9 -62 6 -22 8 -13 6 35 -1 36 -6 74 -11 84 -7 15 -5 17 6 11
12 -8 12 -6 1 8 -8 9 -19 15 -25 14 -6 -1 -16 8 -22 21 -5 12 -16 22 -23 22
-9 0 -7 -8 7 -26z"/>
<path d="M3445 4409 c-10 -14 -1 -21 19 -13 9 3 13 10 10 15 -7 12 -21 11 -29
-2z"/>
<path d="M2797 4219 c7 -7 15 -10 18 -7 3 3 -2 9 -12 12 -14 6 -15 5 -6 -5z"/>
<path d="M10462 456 c15 -13 24 -27 21 -30 -4 -3 1 -6 10 -6 10 0 17 2 17 4 0
12 -49 56 -61 56 -8 -1 -3 -10 13 -24z"/>
<path d="M10555 460 c-4 -6 3 -10 14 -10 25 0 27 6 6 13 -8 4 -17 2 -20 -3z"/>
<path d="M10465 400 c4 -6 11 -8 16 -5 14 9 11 15 -7 15 -8 0 -12 -5 -9 -10z"/>
<path d="M9266 13983 c-9 -9 13 -43 28 -43 9 0 12 7 9 19 -5 20 -27 34 -37 24z"/>
<path d="M8760 13955 c-7 -8 -9 -22 -6 -32 6 -15 9 -15 28 4 11 12 17 26 14
32 -10 15 -21 14 -36 -4z"/>
<path d="M6710 13360 c0 -5 5 -10 11 -10 5 0 7 5 4 10 -3 6 -8 10 -11 10 -2 0
-4 -4 -4 -10z"/>
<path d="M6570 13299 c0 -5 5 -7 10 -4 6 3 10 8 10 11 0 2 -4 4 -10 4 -5 0
-10 -5 -10 -11z"/>
<path d="M10106 12803 c-13 -13 -20 -15 -23 -5 -8 20 -29 14 -47 -13 -9 -14
-23 -25 -30 -25 -18 0 -23 -15 -18 -51 5 -32 23 -42 55 -30 26 10 97 -8 97
-24 0 -5 27 -23 60 -39 76 -36 77 -51 4 -43 -44 4 -66 14 -102 42 -55 43 -78
49 -123 37 l-34 -9 50 -23 c28 -12 58 -27 67 -31 10 -5 29 -9 43 -9 14 0 33
-4 43 -9 49 -27 217 -81 281 -90 40 -5 75 -12 77 -14 3 -2 0 -16 -5 -31 -11
-26 -44 -36 -56 -16 -3 6 -20 10 -37 10 -44 0 -170 39 -163 51 10 16 -25 22
-49 9 -23 -12 -58 -5 -201 39 -16 5 -70 17 -120 26 -49 10 -98 22 -108 27 -32
16 -165 38 -232 38 -41 0 -65 4 -68 13 -3 7 -6 5 -6 -6 -1 -26 -48 -66 -70
-60 -13 3 -23 -3 -31 -17 -12 -22 -5 -43 8 -25 12 17 52 36 62 30 17 -10 -41
-55 -70 -55 -15 0 -30 -7 -33 -15 -4 -8 -24 -26 -47 -40 -42 -27 -54 -51 -20
-42 24 6 27 -15 6 -33 -8 -6 -24 -27 -35 -45 l-19 -33 39 -26 c21 -14 41 -26
45 -26 3 0 23 17 44 38 21 20 54 50 74 65 38 31 46 47 21 47 -8 0 -15 9 -15
19 0 18 4 18 37 9 47 -13 129 -2 162 21 45 32 219 71 316 71 115 0 281 -69
361 -151 l46 -47 51 14 c29 8 60 14 70 14 35 0 11 -25 -36 -38 -53 -15 -57
-25 -25 -59 l22 -23 -22 -30 c-12 -16 -22 -34 -22 -39 0 -6 20 -16 45 -22 44
-11 63 -24 51 -36 -3 -3 -35 0 -71 7 l-67 13 -51 -50 c-132 -127 -297 -181
-491 -162 -49 5 -92 7 -95 3 -3 -3 10 -35 28 -71 l34 -65 201 6 c111 3 190 2
176 -3 -14 -4 -99 -11 -189 -14 -91 -4 -168 -10 -173 -15 -5 -5 4 -64 20 -133
l29 -124 179 0 c98 1 288 5 422 9 l242 9 0 143 0 144 -42 0 c-24 0 -81 -4
-127 -10 -49 -5 -90 -6 -99 -1 -12 7 -4 11 28 15 69 10 130 15 188 15 l52 1 0
426 0 425 -32 -22 c-18 -12 -46 -34 -62 -48 l-29 -26 19 34 c10 18 38 50 62
71 31 28 42 45 42 67 l0 29 -70 2 c-39 0 -105 6 -148 11 -42 6 -117 15 -167
21 -49 6 -106 13 -125 16 -25 3 -40 0 -54 -13z m388 -805 c3 -13 2 -26 -2 -29
-7 -7 -170 -46 -229 -56 -28 -4 -32 -2 -30 16 1 16 16 27 67 46 36 14 77 25
90 25 14 0 32 5 40 10 27 17 57 12 64 -12z m-310 -67 c6 -9 -26 -21 -56 -21
-26 0 -22 18 5 23 39 7 46 7 51 -2z"/>
<path d="M9900 12770 c0 -5 5 -10 11 -10 5 0 7 5 4 10 -3 6 -8 10 -11 10 -2 0
-4 -4 -4 -10z"/>
<path d="M9820 12760 c-8 -5 -11 -12 -7 -16 4 -4 13 -2 19 4 15 15 7 24 -12
12z"/>
<path d="M9274 12516 c-22 -19 -25 -25 -12 -26 9 0 20 5 23 10 4 6 16 8 27 4
15 -4 19 -2 16 12 -5 27 -23 27 -54 0z"/>
<path d="M9815 12440 c-93 -11 -107 -16 -239 -82 -62 -31 -118 -52 -150 -55
-39 -5 -57 -13 -78 -36 -16 -16 -28 -35 -28 -41 0 -18 79 -72 154 -106 42 -19
74 -42 92 -65 48 -63 130 -93 270 -99 106 -5 179 8 249 44 21 11 47 20 56 20
19 0 161 117 202 166 l26 31 -47 44 c-87 83 -160 139 -181 139 -12 0 -40 9
-61 20 -48 25 -153 32 -265 20z"/>
<path d="M4296 12403 c1 -38 12 -60 29 -60 19 0 19 11 0 27 -8 7 -13 16 -10
20 2 4 -1 15 -8 24 -10 14 -12 13 -11 -11z"/>
<path d="M6805 12090 c-3 -6 1 -7 9 -4 18 7 21 14 7 14 -6 0 -13 -4 -16 -10z"/>
<path d="M6720 11869 c0 -5 5 -7 10 -4 6 3 10 8 10 11 0 2 -4 4 -10 4 -5 0
-10 -5 -10 -11z"/>
<path d="M4710 11684 c0 -7 7 -25 15 -40 8 -16 15 -22 15 -14 -1 18 -29 70
-30 54z"/>
<path d="M1705 11510 c-11 -5 -15 -9 -8 -9 6 -1 19 -4 29 -8 11 -4 15 -3 11 4
-4 6 -1 14 5 16 9 4 8 5 -2 6 -8 0 -24 -4 -35 -9z"/>
<path d="M1590 11330 c-9 -6 -10 -10 -3 -10 6 0 15 5 18 10 8 12 4 12 -15 0z"/>
<path d="M1585 11300 c-16 -7 -17 -9 -3 -9 9 -1 20 4 23 9 7 11 7 11 -20 0z"/>
<path d="M1510 11279 c-14 -11 -42 -27 -63 -36 -23 -9 -35 -19 -29 -25 6 -6
29 2 60 21 27 16 52 28 54 26 2 -2 4 5 4 15 0 11 0 20 -1 20 0 0 -11 -10 -25
-21z"/>
<path d="M1578 11273 c7 -3 16 -2 19 1 4 3 -2 6 -13 5 -11 0 -14 -3 -6 -6z"/>
<path d="M1365 11195 l-30 -25 32 17 c18 10 33 21 33 26 0 10 -2 9 -35 -18z"/>
<path d="M1370 11170 c-13 -10 -27 -17 -30 -15 -3 2 -6 -5 -6 -16 0 -17 4 -16
31 9 16 15 32 28 34 30 2 1 2 4 0 6 -2 3 -15 -4 -29 -14z"/>
<path d="M1364 11128 l-19 -23 23 19 c12 11 22 21 22 23 0 8 -8 2 -26 -19z"/>
<path d="M9172 9430 c0 -14 2 -19 5 -12 2 6 2 18 0 25 -3 6 -5 1 -5 -13z"/>
<path d="M10222 7779 c-7 -10 -12 -24 -12 -31 0 -8 5 -5 11 5 5 9 17 17 24 17
19 0 20 16 2 23 -7 3 -19 -3 -25 -14z"/>
<path d="M10230 7749 c0 -5 5 -7 10 -4 6 3 10 8 10 11 0 2 -4 4 -10 4 -5 0
-10 -5 -10 -11z"/>
<path d="M10163 7699 c3 -10 -8 -32 -29 -54 -19 -21 -34 -44 -34 -51 0 -8 -4
-14 -10 -14 -5 0 -18 -8 -27 -19 -10 -10 -79 -81 -153 -157 -190 -195 -332
-351 -287 -315 15 12 17 11 17 -5 0 -17 1 -17 15 2 8 10 15 14 15 7 0 -9 14
-6 46 7 25 11 54 20 64 20 10 0 28 14 40 30 12 17 26 27 32 23 7 -4 9 0 5 10
-3 9 -2 16 2 14 5 -1 23 13 40 32 17 19 31 30 31 25 0 -5 4 -3 9 5 6 9 11 10
15 2 4 -6 3 -11 -2 -11 -5 0 -15 -13 -22 -30 -7 -16 -17 -27 -23 -23 -5 3 -7
1 -4 -4 4 -6 -15 -59 -43 -117 -50 -108 -118 -207 -168 -246 -15 -12 -68 -61
-119 -110 l-92 -89 14 -53 c8 -29 20 -77 26 -105 5 -29 17 -69 25 -88 7 -19
14 -51 14 -72 0 -21 16 -95 35 -165 38 -140 61 -277 75 -448 9 -115 21 -164
87 -355 19 -55 45 -149 57 -210 l22 -109 37 -8 c20 -4 71 -10 114 -13 43 -3
85 -6 93 -7 8 0 20 -4 25 -8 6 -5 27 -8 48 -8 21 0 45 -6 53 -13 11 -9 54 -14
143 -14 88 -1 143 -7 183 -19 32 -9 74 -16 95 -14 l38 3 3 1211 2 1211 -187 6
c-104 4 -250 7 -325 7 -76 0 -138 2 -138 4 0 6 105 186 129 221 34 51 75 130
60 118 -20 -16 -30 -17 -41 -1 -8 10 -9 9 -5 -3z"/>
<path d="M9448 6602 c-14 -9 -37 -31 -49 -47 -13 -17 -40 -48 -61 -70 -46 -49
-47 -59 -5 -50 41 9 47 13 47 31 0 14 16 18 53 15 12 -2 17 5 17 21 0 19 2 20
11 8 8 -12 9 -9 5 13 -4 15 -3 27 1 27 5 0 8 16 9 35 0 19 0 35 0 35 -1 0 -13
-8 -28 -18z"/>
<path d="M7640 6201 c0 -5 5 -13 11 -16 6 -4 30 -37 53 -74 24 -36 58 -80 76
-98 32 -31 32 -31 14 -57 -11 -13 -47 -38 -80 -55 -45 -22 -71 -43 -97 -79
-22 -31 -45 -51 -61 -54 -14 -3 -26 -2 -26 2 0 4 -10 6 -22 4 -13 -1 -31 -3
-40 -3 -10 -1 -22 -11 -29 -22 -9 -18 -8 -24 5 -31 26 -14 19 -39 -23 -79 -22
-20 -37 -40 -34 -43 13 -13 33 -5 67 27 59 53 65 57 81 57 18 0 45 -23 45 -38
0 -4 -12 -19 -27 -33 -14 -13 -23 -18 -19 -11 4 6 2 12 -4 12 -18 0 -80 -31
-80 -40 0 -4 -17 -19 -38 -34 -40 -27 -85 -35 -77 -13 3 6 1 18 -4 26 -7 10
-13 11 -30 2 -31 -17 -28 13 5 56 36 47 47 89 28 108 -19 19 -44 19 -71 0 -20
-14 -110 -38 -143 -38 -8 0 -26 -8 -39 -19 -13 -10 -30 -18 -37 -18 -7 0 -16
-9 -19 -20 -3 -11 -13 -20 -20 -20 -17 0 -122 -55 -146 -76 -8 -8 -23 -14 -31
-14 -9 0 -18 -9 -21 -20 -6 -23 -55 -28 -75 -8 -6 6 -15 9 -18 5 -13 -13 8
-59 45 -100 21 -23 44 -59 52 -79 14 -41 28 -49 36 -20 2 9 32 36 66 60 244
170 229 161 245 146 8 -8 21 -13 29 -10 8 4 26 9 40 12 25 7 25 6 10 -23 -19
-36 -69 -76 -134 -106 -55 -26 -123 -68 -144 -90 -18 -18 -43 -26 -92 -29 -20
-1 -36 -5 -34 -8 1 -3 9 -17 16 -31 19 -39 66 -62 110 -55 42 6 57 -2 130 -70
25 -24 49 -44 54 -44 4 0 28 -10 54 -22 45 -21 47 -21 93 -5 26 9 72 17 102
17 130 0 200 38 308 169 47 58 90 102 156 162 21 20 56 61 77 90 20 30 50 68
66 85 17 18 27 34 24 37 -3 3 13 11 34 17 36 11 41 16 53 62 l13 51 -116 111
c-63 61 -172 175 -241 254 -69 79 -126 139 -126 133z m175 -391 c-3 -5 -13
-10 -21 -10 -8 0 -14 5 -14 10 0 6 9 10 21 10 11 0 17 -4 14 -10z m-80 -320
c-9 -16 -22 -30 -30 -30 -23 0 -18 34 8 46 35 18 38 16 22 -16z m-357 -168
c-12 -27 -21 -37 -95 -99 -24 -19 -43 -39 -43 -45 0 -18 -105 -97 -115 -86 -1
2 -6 18 -10 37 -7 32 -4 37 82 121 88 87 133 113 175 102 14 -3 15 -8 6 -30z
m37 -2 c-3 -5 -10 -10 -16 -10 -5 0 -9 5 -9 10 0 6 7 10 16 10 8 0 12 -4 9
-10z m185 -61 c0 -25 -80 -109 -104 -109 -29 0 -17 29 32 80 52 54 72 62 72
29z"/>
<path d="M7237 6124 c-27 -13 -55 -28 -62 -34 -8 -7 -19 -9 -25 -5 -6 3 -10
-3 -10 -14 0 -12 -3 -20 -7 -19 -13 5 -166 -115 -170 -133 -3 -10 -16 -20 -29
-23 -13 -4 -21 -12 -19 -19 5 -11 -90 -82 -150 -113 -37 -19 -120 -49 -128
-46 -5 1 -6 -2 -2 -8 3 -5 29 -10 56 -10 38 0 49 -3 47 -14 -4 -19 7 -20 35
-2 12 7 43 17 69 20 62 9 128 42 128 64 0 9 35 50 78 91 162 154 183 177 213
230 17 29 29 54 27 56 -2 2 -25 -8 -51 -21z"/>
<path d="M116 4985 c-16 -8 -41 -15 -56 -15 -55 0 -60 -7 -60 -76 0 -35 3 -64
8 -64 13 0 52 31 52 42 0 5 11 19 24 29 26 20 71 87 64 94 -2 2 -17 -2 -32
-10z"/>
<path d="M9854 4938 c4 -24 11 -77 16 -118 5 -41 18 -111 29 -155 24 -100 36
-180 56 -365 9 -80 20 -162 26 -182 11 -43 11 -373 0 -493 -5 -61 -3 -103 12
-180 10 -55 25 -134 32 -175 8 -41 14 -132 15 -201 l0 -126 54 -12 c30 -7 97
-33 148 -58 l93 -46 -35 -8 c-19 -4 -78 -11 -130 -14 -104 -8 -111 -10 -104
-28 3 -8 20 -12 47 -10 23 2 36 0 29 -3 -10 -5 -10 -11 4 -31 9 -14 11 -23 6
-19 -6 4 -16 -3 -22 -14 -7 -14 -19 -20 -33 -18 -20 3 -21 -1 -18 -37 1 -22 6
-44 11 -50 4 -5 6 -28 5 -50 -3 -27 -1 -32 3 -16 6 21 9 22 20 8 18 -21 61
-30 78 -16 18 15 18 49 0 75 -8 11 -14 34 -14 51 1 17 -2 35 -6 41 -4 7 4 9
28 5 19 -3 36 -1 40 5 10 17 -15 50 -44 58 -24 6 -25 6 -3 14 24 10 250 16
258 8 3 -3 3 -12 -1 -21 -4 -13 -10 -14 -24 -7 -33 18 -52 13 -44 -12 6 -21 5
-20 -26 5 -35 30 -56 28 -40 -3 9 -17 6 -21 -22 -28 -30 -8 -33 -12 -33 -48 0
-21 -6 -51 -14 -66 -12 -23 -11 -33 5 -77 25 -72 82 -142 126 -159 33 -13 40
-13 63 2 14 9 25 26 25 37 0 18 2 20 16 8 13 -10 17 -10 25 2 5 8 9 23 10 34
1 13 4 9 8 -10 7 -35 35 -40 39 -7 2 14 10 22 22 22 10 0 22 5 25 11 5 7 16 2
31 -12 l24 -22 0 95 c0 74 -3 97 -14 101 -8 3 -19 14 -25 25 -9 17 -7 18 14
14 30 -5 31 3 6 44 -19 31 -19 32 0 27 18 -5 19 1 19 112 l0 117 -49 47 c-92
87 -109 101 -125 101 -8 0 -18 5 -21 10 -3 6 4 10 16 10 17 0 20 3 12 11 -7 7
-30 12 -52 12 -28 0 -41 4 -41 13 0 8 -6 15 -12 15 -7 1 0 4 16 8 42 9 34 26
-11 26 -39 0 -71 24 -51 36 12 7 2 29 -13 29 -5 0 -9 -7 -9 -15 0 -8 -6 -15
-14 -15 -8 0 -16 -6 -19 -12 -2 -7 -4 2 -5 20 0 18 3 30 8 27 5 -3 11 -1 15 5
3 5 19 10 35 10 23 0 28 -4 23 -16 -4 -10 1 -17 16 -21 11 -3 21 -8 21 -12 0
-9 60 -34 66 -28 3 3 -8 13 -25 23 -17 10 -31 24 -31 31 0 7 -5 13 -11 13 -7
0 -9 11 -5 28 3 15 3 21 0 15 -7 -17 -25 -17 -22 -1 2 7 -4 13 -12 13 -9 0
-14 -7 -12 -17 2 -11 -3 -18 -13 -18 -12 0 -15 8 -13 32 2 27 -1 33 -22 39
-17 5 -19 7 -7 8 18 1 18 2 -1 29 -22 33 -31 172 -10 172 9 0 9 3 0 12 -21 21
-14 37 16 35 24 -2 27 1 27 28 0 24 -5 31 -25 35 -18 4 -26 12 -28 33 -3 30 9
34 53 17 23 -9 26 -14 20 -38 -4 -20 -1 -33 10 -42 12 -10 15 -10 15 1 1 10 5
9 14 -4 10 -13 15 -15 19 -5 4 10 7 11 18 1 7 -7 9 -13 3 -13 -5 0 -10 -8 -11
-18 -1 -16 6 -19 50 -17 46 2 52 4 53 23 1 13 -5 22 -13 22 -27 0 -113 43
-113 56 0 8 -5 14 -10 14 -7 0 -7 6 0 19 15 28 12 41 -6 34 -13 -5 -15 -2 -9
16 5 18 2 24 -14 28 -19 5 -26 19 -22 50 1 6 -11 13 -26 15 l-28 3 -2 95 c-2
112 2 140 22 140 22 0 18 18 -5 25 -11 4 -20 15 -20 27 0 16 3 18 14 9 18 -15
46 -3 46 20 0 21 8 23 30 9 13 -9 13 -11 0 -20 -13 -8 -12 -10 5 -10 18 0 18
-1 -3 -16 -26 -18 -28 -36 -7 -54 22 -19 48 5 34 31 -13 25 0 31 81 38 23 2
-2 19 -35 24 -24 3 -22 4 12 6 33 1 45 -3 53 -19 6 -11 17 -20 25 -20 11 0 10
5 -5 20 -12 12 -18 25 -15 29 2 5 -2 14 -10 21 -13 11 -14 10 -9 -4 5 -12 0
-16 -17 -16 -19 0 -21 2 -9 10 8 5 10 10 4 10 -7 0 -14 7 -18 15 -3 9 0 15 10
15 9 0 12 -5 8 -12 -5 -10 -4 -10 6 -1 19 17 -5 43 -39 42 -23 0 -24 -1 -6 -9
14 -6 15 -9 5 -9 -19 -1 -21 -41 -2 -41 7 0 11 -4 8 -8 -6 -11 -66 -3 -66 8 0
5 -8 11 -17 13 -13 3 -12 5 5 6 13 0 21 5 18 10 -3 4 -27 6 -53 4 -44 -5 -49
-3 -50 16 -1 13 4 21 15 22 14 0 15 2 2 7 -8 4 -16 16 -17 27 -2 11 -5 40 -8
64 l-5 44 74 -6 c41 -4 131 -10 200 -13 124 -7 126 -7 126 14 0 20 -5 22 -62
22 -35 0 -92 5 -128 10 -36 5 -110 11 -165 15 -88 5 -103 9 -125 30 -17 16
-38 25 -58 25 -21 0 -35 6 -42 19 -9 18 -7 19 19 11 24 -7 30 -4 44 20 16 26
16 29 -4 54 -25 32 -59 33 -86 3 -18 -21 -18 -25 -5 -45 14 -21 13 -22 -10
-22 -40 0 -51 20 -23 42 23 18 23 20 9 62 -11 32 -24 48 -49 62 -19 10 -35 24
-35 31 0 7 -9 18 -19 25 -17 10 -19 20 -14 68 5 52 3 58 -21 73 -41 27 -49 22
-42 -25z m337 -462 c10 6 25 -24 15 -33 -9 -9 -36 18 -35 36 0 10 2 12 6 3 2
-6 9 -10 14 -6z m27 -152 c0 -38 3 -84 6 -101 7 -37 1 -40 -32 -17 -15 10 -32
14 -49 9 -22 -5 -24 -3 -18 12 9 23 13 43 14 67 1 14 6 17 27 12 16 -4 23 -3
19 3 -3 6 0 20 7 31 13 21 7 31 -27 43 -5 3 1 14 15 26 23 21 24 21 31 3 4
-10 7 -50 7 -88z m-115 -153 c-3 -13 4 -28 20 -43 50 -45 50 -45 69 -26 30 30
39 12 34 -69 -4 -77 -19 -113 -32 -78 -4 10 -16 27 -26 37 -10 10 -16 23 -13
28 3 4 -1 10 -7 13 -10 3 -10 9 1 27 12 21 11 25 -5 37 -10 7 -26 13 -36 13
-10 0 -17 3 -16 8 2 13 -14 42 -21 37 -4 -2 -8 2 -8 9 0 8 7 12 15 8 10 -3 13
-1 8 6 -4 7 -1 12 7 12 10 0 13 -7 10 -19z m117 -251 c0 -5 -2 -10 -4 -10 -3
0 -8 5 -11 10 -3 6 -1 10 4 10 6 0 11 -4 11 -10z m-16 -81 c-2 -4 2 -9 10 -12
11 -4 13 -35 12 -144 -1 -123 -3 -138 -18 -141 -14 -3 -18 3 -18 28 0 18 -4
29 -10 25 -13 -8 -13 8 0 21 7 7 4 19 -9 36 -11 14 -18 27 -16 30 3 3 -2 21
-10 41 -15 35 -14 37 5 37 15 0 20 7 20 24 0 14 -4 28 -10 31 -6 4 -4 15 6 30
13 19 18 22 29 12 7 -7 11 -15 9 -18z m113 16 c0 -8 -4 -15 -9 -15 -4 0 -8 7
-8 15 0 8 4 15 8 15 5 0 9 -7 9 -15z m-107 -345 c6 -11 8 -20 6 -20 -3 0 -10
9 -16 20 -6 11 -8 20 -6 20 3 0 10 -9 16 -20z m-46 -205 c3 -8 2 -16 -2 -19
-12 -7 -45 22 -38 33 8 13 33 4 40 -14z m126 -345 c0 -11 5 -20 10 -20 6 0 10
-13 10 -30 0 -34 -9 -36 -50 -15 -23 12 -30 23 -30 44 0 29 10 39 43 40 11 1
17 -6 17 -19z m109 -108 c8 -2 18 3 24 10 6 9 7 8 3 -4 -4 -13 0 -18 17 -19
21 -2 21 -2 1 -6 -27 -5 -74 13 -74 29 0 8 3 9 8 3 4 -5 13 -11 21 -13z m223
-47 c18 6 20 4 12 -5 -18 -18 -55 -8 -72 20 l-16 25 26 -23 c19 -18 33 -22 50
-17z m-74 -56 c18 -6 29 -15 26 -20 -3 -6 0 -17 7 -26 11 -13 11 -15 -5 -12
-10 2 -30 19 -44 37 -28 36 -27 36 16 21z m-98 -89 c0 -5 -8 -10 -17 -10 -15
0 -16 2 -3 10 19 12 20 12 20 0z m-94 -18 c-4 -12 1 -21 16 -28 13 -6 17 -9
10 -7 -21 4 -70 -25 -75 -44 -4 -17 -5 -17 -6 0 0 9 8 26 19 37 11 11 20 26
20 33 0 13 9 27 17 27 3 0 2 -8 -1 -18z m174 -32 c8 -5 12 -11 10 -14 -3 -2
-14 2 -24 10 -22 15 -10 19 14 4z"/>
<path d="M9995 4950 c-3 -5 -8 -25 -10 -43 -4 -28 0 -37 26 -56 29 -21 30 -24
14 -41 -14 -15 -14 -21 -3 -42 37 -66 84 -85 123 -48 l23 22 8 -24 c4 -12 7
-31 5 -42 -1 -10 8 -29 20 -42 18 -19 20 -27 11 -36 -18 -18 -14 -56 7 -68 28
-14 47 -13 66 6 12 13 19 14 28 5 16 -16 42 -14 58 5 11 14 15 13 30 -7 l18
-24 24 27 c17 18 40 29 72 34 51 7 85 32 85 62 0 11 13 23 35 31 l35 12 0 104
0 103 -31 11 c-18 6 -52 11 -76 11 -37 0 -45 -4 -55 -26 -16 -34 -1 -57 43
-65 24 -4 29 -8 18 -13 -43 -19 -90 33 -74 83 10 33 -22 26 -44 -9 -20 -34
-34 -30 -20 7 12 32 12 33 -5 33 -8 0 -23 -11 -34 -24 -14 -19 -22 -22 -31
-13 -8 8 -14 8 -23 -1 -10 -10 -16 -8 -29 10 -16 20 -18 21 -41 6 -22 -14 -26
-14 -48 4 -24 20 -53 20 -136 3 -28 -6 -32 -4 -44 24 -12 31 -33 40 -45 21z
m283 -139 c20 -10 61 -49 90 -85 55 -70 87 -86 128 -67 28 13 32 31 6 31 -11
0 -27 10 -38 22 l-19 22 27 -17 c55 -34 156 -8 159 41 0 10 3 12 5 5 9 -21
-17 -54 -54 -71 -21 -10 -48 -28 -61 -40 -19 -20 -29 -23 -59 -17 -21 4 -53 7
-73 8 -35 1 -36 2 -16 18 21 16 21 16 -6 34 -15 9 -44 24 -65 32 l-37 14 38
-6 c20 -3 37 -2 37 3 0 17 -56 62 -95 76 -22 8 -32 15 -22 15 10 1 34 -8 55
-18z m-37 -139 c-7 -2 -18 1 -23 6 -8 8 -4 9 13 5 13 -4 18 -8 10 -11z"/>
<path d="M49 4808 c-30 -32 -49 -81 -49 -125 1 -36 2 -37 15 -19 8 11 15 33
15 48 0 22 7 31 28 40 21 9 23 12 10 15 -22 5 -22 8 -2 38 20 31 12 32 -17 3z"/>
<path d="M0 4804 c0 -8 5 -12 10 -9 6 3 10 10 10 16 0 5 -4 9 -10 9 -5 0 -10
-7 -10 -16z"/>
<path d="M128 4663 c7 -3 16 -2 19 1 4 3 -2 6 -13 5 -11 0 -14 -3 -6 -6z"/>
<path d="M10572 4574 c-27 -19 -28 -28 -2 -54 25 -25 51 -25 78 -1 31 26 27
45 -11 59 -41 15 -38 15 -65 -4z"/>
<path d="M50 4520 c-13 -8 -12 -10 3 -10 9 0 17 5 17 10 0 12 -1 12 -20 0z"/>
<path d="M10434 4425 c-8 -19 3 -35 26 -35 22 0 33 23 17 39 -15 15 -37 14
-43 -4z"/>
<path d="M10566 4413 c-10 -25 7 -35 48 -27 l37 6 -31 19 c-38 23 -46 24 -54
2z"/>
<path d="M10318 4413 c7 -3 16 -2 19 1 4 3 -2 6 -13 5 -11 0 -14 -3 -6 -6z"/>
<path d="M10354 4351 c3 -5 17 -11 31 -13 20 -4 23 -3 14 8 -12 15 -54 20 -45
5z"/>
<path d="M10415 4352 c6 -6 24 -13 40 -17 21 -4 25 -3 15 3 -24 15 -67 26 -55
14z"/>
<path d="M10578 4328 c5 -5 16 -8 23 -6 8 3 3 7 -10 11 -17 4 -21 3 -13 -5z"/>
<path d="M10308 4293 c7 -3 16 -2 19 1 4 3 -2 6 -13 5 -11 0 -14 -3 -6 -6z"/>
<path d="M10578 4253 c7 -3 16 -2 19 1 4 3 -2 6 -13 5 -11 0 -14 -3 -6 -6z"/>
<path d="M10455 4169 c-6 -9 35 -29 59 -29 8 0 29 -6 47 -14 29 -12 38 -12 59
0 l25 13 -32 1 c-18 0 -33 5 -33 10 0 6 -10 8 -24 4 -13 -3 -39 1 -59 10 -22
9 -39 11 -42 5z"/>
<path d="M10595 4170 c-7 -11 22 -26 32 -16 4 3 1 6 -6 6 -7 0 -9 5 -6 10 3 6
2 10 -4 10 -5 0 -13 -5 -16 -10z"/>
<path d="M10657 4133 c-3 -5 -1 -17 4 -28 7 -17 8 -17 8 8 1 27 -4 34 -12 20z"/>
<path d="M10485 4120 c23 -6 25 -8 10 -10 -11 -2 -26 -3 -32 -3 -7 1 -13 -3
-13 -8 0 -5 25 -9 55 -9 40 0 55 4 55 14 0 16 -32 26 -75 25 l-30 -1 30 -8z"/>
<path d="M10600 4080 c0 -5 7 -10 15 -10 8 0 15 5 15 10 0 6 -7 10 -15 10 -8
0 -15 -4 -15 -10z"/>
<path d="M10608 4023 c6 -2 18 -2 25 0 6 3 1 5 -13 5 -14 0 -19 -2 -12 -5z"/>
<path d="M10640 3990 c0 -5 7 -10 15 -10 8 0 15 5 15 10 0 6 -7 10 -15 10 -8
0 -15 -4 -15 -10z"/>
<path d="M10376 3965 c-3 -8 -12 -15 -19 -15 -12 0 -15 -18 -8 -51 0 -4 19 -9
40 -13 32 -5 41 -11 49 -36 11 -29 35 -40 47 -20 3 6 15 10 27 10 17 0 18 2 8
15 -7 8 -19 15 -26 15 -8 0 -14 4 -14 9 0 5 -10 12 -22 16 -14 4 -18 8 -10 12
6 2 12 13 12 24 0 17 -3 18 -20 9 -17 -9 -22 -7 -30 15 -11 28 -25 33 -34 10z
m54 -65 c0 -5 -7 -10 -15 -10 -8 0 -15 5 -15 10 0 6 7 10 15 10 8 0 15 -4 15
-10z"/>
<path d="M10511 3947 c-15 -15 -14 -42 3 -56 21 -18 53 2 51 30 -2 26 -37 43
-54 26z"/>
<path d="M10625 3900 c3 -5 10 -10 16 -10 5 0 9 5 9 10 0 6 -7 10 -16 10 -8 0
-12 -4 -9 -10z"/>
<path d="M10575 3860 c-3 -6 -3 -19 0 -31 10 -29 39 -20 43 14 3 21 -1 27 -17
27 -11 0 -23 -5 -26 -10z"/>
<path d="M10394 3808 c-4 -7 -3 -8 4 -4 7 4 12 2 12 -3 0 -6 5 -11 10 -11 15
0 12 17 -5 23 -8 4 -17 1 -21 -5z"/>
<path d="M10455 3740 c3 -5 11 -10 16 -10 6 0 7 5 4 10 -3 6 -11 10 -16 10 -6
0 -7 -4 -4 -10z"/>
<path d="M10434 3715 c21 -16 32 -13 21 4 -3 6 -14 11 -23 11 -15 -1 -15 -2 2
-15z"/>
<path d="M10382 3619 c-13 -5 -30 -15 -38 -23 -13 -13 -12 -16 5 -26 35 -18
49 -12 53 25 2 19 4 35 3 34 0 0 -10 -4 -23 -10z"/>
<path d="M10495 3590 c-4 -6 -10 -8 -14 -6 -4 3 -13 1 -21 -5 -12 -7 -11 -9 5
-9 20 -1 20 -1 0 -16 -26 -19 -10 -30 46 -32 23 -1 44 -4 49 -7 4 -3 7 3 6 12
0 9 5 18 13 21 9 3 11 0 6 -8 -6 -10 -4 -12 8 -7 10 3 17 2 17 -3 0 -6 -6 -10
-12 -11 -7 0 -2 -5 12 -10 14 -6 28 -17 33 -25 4 -8 12 -14 17 -14 17 0 11 28
-10 43 -11 8 -17 17 -13 21 4 4 -3 9 -15 13 -12 3 -22 9 -22 14 0 4 -16 11
-35 15 -19 3 -38 10 -41 15 -7 12 -21 11 -29 -1z m40 -40 c3 -5 -3 -10 -14
-10 -11 0 -23 5 -26 10 -3 6 3 10 14 10 11 0 23 -4 26 -10z"/>
<path d="M10563 3589 c10 -6 25 -8 33 -5 24 9 62 -11 67 -36 3 -18 5 -16 6 8
1 36 -15 44 -84 44 -33 -1 -37 -2 -22 -11z"/>
<path d="M10622 3438 c3 -7 15 -15 28 -16 21 -3 22 -2 11 12 -16 19 -44 21
-39 4z"/>
<path d="M10509 3384 c-16 -20 0 -49 27 -49 22 0 31 30 14 50 -16 19 -24 19
-41 -1z"/>
<path d="M10630 3375 c-5 -14 -10 -37 -10 -50 0 -18 -4 -22 -19 -18 -21 5 -37
-25 -22 -40 7 -7 4 -19 -9 -37 -15 -21 -17 -34 -10 -63 14 -62 35 -87 75 -87
l36 0 -3 157 c-2 114 -6 157 -15 160 -7 3 -17 -7 -23 -22z"/>
<path d="M10446 3319 c-14 -21 -14 -24 0 -40 16 -18 44 -16 44 3 0 6 7 8 15 4
8 -3 15 -1 15 4 0 6 -5 10 -11 10 -7 0 -20 9 -29 20 l-18 21 -16 -22z"/>
<path d="M10111 2895 c9 -9 23 -13 32 -9 24 9 11 24 -21 24 -24 0 -25 -2 -11
-15z"/>
<path d="M10060 2889 c0 -5 9 -9 20 -9 11 0 20 2 20 4 0 2 -9 6 -20 9 -11 3
-20 1 -20 -4z"/>
<path d="M10085 2477 c-3 -12 -5 -52 -3 -87 3 -67 18 -85 42 -48 8 13 6 24
-10 45 -19 26 -19 30 -5 54 15 26 10 59 -8 59 -6 0 -13 -10 -16 -23z"/>
<path d="M10180 2424 c-12 -30 -1 -55 32 -78 29 -20 48 -20 48 0 0 8 4 13 9
10 12 -8 -1 45 -19 72 -21 31 -58 29 -70 -4z"/>
<path d="M10622 417 c10 -8 14 -18 10 -22 -4 -5 -1 -5 6 -1 17 10 15 14 -10
26 -21 10 -21 10 -6 -3z"/>
</g>
</svg>
